<svg width="523" height="296" viewBox="0 0 523 296" fill="none" xmlns="http://www.w3.org/2000/svg">
<g clip-path="url(#clip0_6893_26200)">
<path opacity="0.3" d="M258.865 82.3059L385.438 155.376L259.843 227.883L133.27 154.812L258.865 82.3059Z" fill="#FBFDFF"/>
<rect opacity="0.18" width="116.235" height="146.29" transform="matrix(-4.37114e-08 1 -0.865988 -0.500065 259.955 228.042)" fill="url(#paint0_linear_6893_26200)"/>
<rect opacity="0.32" width="114.469" height="145.101" transform="matrix(4.37114e-08 1 0.865988 -0.500065 259.955 227.923)" fill="url(#paint1_linear_6893_26200)"/>
<rect opacity="0.33" width="19.4174" height="19.6953" transform="matrix(0.866044 0.499967 -0.866044 0.499967 133.445 231.356)" fill="#E6E8EA"/>
<rect opacity="0.23" width="15.688" height="19.4323" transform="matrix(-4.37114e-08 1 -0.865988 -0.500065 133.189 250.907)" fill="#AEB4BC"/>
<rect opacity="0.21" width="15.9048" height="19.5313" transform="matrix(-4.37114e-08 1 -0.865988 -0.500065 150.264 241.075)" fill="#CACED3"/>
<rect opacity="0.4" width="15.8184" height="19.7173" transform="matrix(4.37114e-08 1 0.865988 -0.500065 133.189 250.919)" fill="#929AA5"/>
<g style="mix-blend-mode:screen" opacity="0.62">
<rect width="19.5638" height="19.5175" transform="matrix(0.866044 0.499967 -0.866044 0.499967 133.242 247.091)" fill="url(#paint2_linear_6893_26200)"/>
</g>
<rect opacity="0.33" width="19.4174" height="19.6953" transform="matrix(0.866044 0.499967 -0.866044 0.499967 121.905 108.982)" fill="#E6E8EA"/>
<rect opacity="0.23" width="15.688" height="19.4323" transform="matrix(-4.37114e-08 1 -0.865988 -0.500065 121.65 128.533)" fill="#AEB4BC"/>
<rect opacity="0.21" width="15.9048" height="19.5313" transform="matrix(-4.37114e-08 1 -0.865988 -0.500065 138.725 118.7)" fill="#CACED3"/>
<rect opacity="0.4" width="15.8184" height="19.7173" transform="matrix(4.37114e-08 1 0.865988 -0.500065 121.65 128.545)" fill="#929AA5"/>
<g style="mix-blend-mode:screen" opacity="0.62">
<rect width="19.5638" height="19.5175" transform="matrix(0.866044 0.499967 -0.866044 0.499967 121.703 124.716)" fill="url(#paint3_linear_6893_26200)"/>
</g>
<rect width="18.1953" height="18.4557" transform="matrix(0.8682 0.496214 -0.8682 0.496214 383.2 208.674)" fill="#FCEA9C"/>
<g style="mix-blend-mode:multiply" opacity="0.28">
<rect width="14.5903" height="18.2092" transform="matrix(-4.41516e-08 1 -0.868144 -0.496312 382.96 226.857)" fill="#FCEA9C"/>
</g>
<g style="mix-blend-mode:multiply">
<rect width="14.5903" height="18.2092" transform="matrix(-4.41516e-08 1 -0.868144 -0.496312 382.96 226.857)" fill="url(#paint4_linear_6893_26200)"/>
</g>
<g style="mix-blend-mode:multiply">
<rect width="14.5903" height="18.2092" transform="matrix(-4.41516e-08 1 -0.868144 -0.496312 382.96 226.857)" fill="#FCEA9C"/>
</g>
<rect opacity="0.71" width="14.5903" height="18.2092" transform="matrix(-4.41516e-08 1 -0.868144 -0.496312 382.96 226.857)" fill="#F0B90B"/>
<rect width="14.5903" height="18.2092" transform="matrix(-4.41516e-08 1 -0.868144 -0.496312 382.96 226.857)" fill="url(#paint5_linear_6893_26200)"/>
<g style="mix-blend-mode:multiply">
<rect width="14.7115" height="18.4763" transform="matrix(4.41516e-08 1 0.868144 -0.496312 382.96 226.868)" fill="url(#paint6_linear_6893_26200)"/>
</g>
<rect width="14.7115" height="18.4763" transform="matrix(4.41516e-08 1 0.868144 -0.496312 382.96 226.538)" fill="url(#paint7_linear_6893_26200)"/>
<rect opacity="0.3" width="18.1953" height="18.4557" transform="matrix(0.8682 0.496214 -0.8682 0.496214 383.2 222.956)" fill="#FCEA9C"/>
<g clip-path="url(#clip1_6893_26200)">
<rect width="56.1857" height="37.2689" transform="matrix(0.866025 0.5 -7.53472e-05 -1 413.451 152.272)" fill="#F5F5F5"/>
<path opacity="0.97" d="M457.432 160.357C462.402 164.151 463.956 173.688 472.745 177.27C481.535 180.853 472.747 202.599 472.747 202.599L407.491 157.659L403.626 118.449C403.626 118.449 406.807 126.88 413.351 136.2C419.895 145.521 428.267 140.882 433.341 143.437C438.415 145.993 441.299 154.283 445.356 157.018C449.413 159.754 452.461 156.562 457.432 160.357Z" fill="url(#paint8_linear_6893_26200)"/>
<path d="M462.304 166.696C460.779 164.173 459.363 161.831 457.432 160.357C454.743 158.304 452.617 158.295 450.589 158.287C448.868 158.281 447.218 158.274 445.356 157.018C443.538 155.792 441.955 153.451 440.305 151.009C438.274 148.004 436.141 144.847 433.341 143.437C431.609 142.565 429.493 142.531 427.197 142.494C422.765 142.422 417.662 142.34 413.351 136.201C412.514 135.008 411.732 133.831 411.005 132.684L411.003 108.227L467.486 140.837L467.488 173.793C465.303 171.658 463.754 169.095 462.304 166.696Z" fill="url(#paint9_linear_6893_26200)"/>
<rect width="2.54106" height="2.54106" transform="matrix(0.866025 0.5 7.53472e-05 1 420.051 124.743)" fill="#DEE1E3"/>
<rect width="2.54106" height="2.54106" transform="matrix(0.866025 0.5 7.53472e-05 1 428.609 129.684)" fill="#DEE1E3"/>
<rect width="2.54106" height="2.54106" transform="matrix(0.866025 0.5 7.53472e-05 1 437.167 134.625)" fill="#F3C21C"/>
<rect width="2.54106" height="2.54106" transform="matrix(0.866025 0.5 7.53472e-05 1 445.725 139.566)" fill="#DEE1E3"/>
<rect width="2.54106" height="2.54106" transform="matrix(0.866025 0.5 7.53472e-05 1 454.283 144.507)" fill="#DEE1E3"/>
<g opacity="0.7">
<line y1="-0.14117" x2="57.0327" y2="-0.14117" transform="matrix(-7.54608e-05 -1 -0.866025 -0.5 455.021 207.61)" stroke="#F6F6F6" stroke-width="0.28234"/>
<line y1="-0.14117" x2="57.0328" y2="-0.14117" transform="matrix(-7.55038e-05 -1 -0.866025 -0.5 446.585 202.74)" stroke="#F6F6F6" stroke-width="0.28234"/>
<line y1="-0.14117" x2="57.0328" y2="-0.14117" transform="matrix(-7.55038e-05 -1 -0.866025 -0.5 438.149 197.87)" stroke="#F6F6F6" stroke-width="0.28234"/>
<line y1="-0.14117" x2="57.0328" y2="-0.14117" transform="matrix(-7.55038e-05 -1 -0.866025 -0.5 429.714 192.999)" stroke="#F6F6F6" stroke-width="0.28234"/>
<line y1="-0.14117" x2="57.0328" y2="-0.14117" transform="matrix(-7.55038e-05 -1 -0.866025 -0.5 421.278 188.129)" stroke="#F6F6F6" stroke-width="0.28234"/>
</g>
</g>
<rect width="37.2104" height="3.31938" transform="matrix(4.36486e-08 1 0.865676 -0.500605 462.07 142.964)" fill="#484E58"/>
<g style="mix-blend-mode:screen">
<rect width="13.6451" height="3.31938" transform="matrix(4.36486e-08 1 0.865676 -0.500605 462.07 166.529)" fill="#484E58"/>
</g>
<rect width="56.3117" height="3.31938" transform="matrix(-0.866025 -0.5 0.866374 -0.499395 461.988 143.063)" fill="#A1A8B2"/>
<g clip-path="url(#clip2_6893_26200)">
<path opacity="0.09" d="M277.656 55.1925C279.839 52.3159 281.866 49.6455 284.769 49.7712C288.81 49.9461 292.135 53.6221 295.306 57.1276C297.997 60.1028 300.577 62.9551 303.389 63.4403C306.135 63.914 308.423 61.534 310.808 59.053C313.745 55.9986 316.829 52.791 321.095 54.5669C323.734 55.6652 327.04 59.2666 330.629 63.1751C337.555 70.7189 345.531 79.4065 351.782 73.447C352.56 72.7055 353.303 71.9378 354.011 71.1532L354.01 51.1748L272.169 3.92385L272.173 60.844C274.359 59.536 276.05 57.3085 277.656 55.1925Z" fill="#AEB4BC"/>
<path opacity="0.83" d="M284.769 49.7714C277.298 49.4479 275.631 67.6382 262.17 60.214C248.71 52.7898 345.779 136.828 345.779 136.828L355.011 125.415L365.572 51.4598C365.572 51.4598 361.271 64.4001 351.782 73.4473C342.293 82.4944 328.827 57.7854 321.095 54.5671C313.364 51.3488 309.515 64.4974 303.389 63.4405C297.263 62.3837 292.24 50.0949 284.769 49.7714Z" fill="url(#paint10_linear_6893_26200)"/>
<g opacity="0.48">
<line y1="-0.123729" x2="94.4766" y2="-0.123729" transform="matrix(-7.53642e-05 -1 -0.866025 -0.5 341.035 153.624)" stroke="#F6F6F6" stroke-width="0.247458"/>
<line y1="-0.123729" x2="94.4766" y2="-0.123729" transform="matrix(-7.5387e-05 -1 -0.866025 -0.5 327.06 145.556)" stroke="#F6F6F6" stroke-width="0.247458"/>
<line y1="-0.123729" x2="94.4766" y2="-0.123729" transform="matrix(-7.5387e-05 -1 -0.866025 -0.5 313.086 137.488)" stroke="#F6F6F6" stroke-width="0.247458"/>
<line y1="-0.123729" x2="94.4766" y2="-0.123729" transform="matrix(-7.5387e-05 -1 -0.866025 -0.5 299.112 129.42)" stroke="#F6F6F6" stroke-width="0.247458"/>
<line y1="-0.123729" x2="94.4766" y2="-0.123729" transform="matrix(-7.5387e-05 -1 -0.866025 -0.5 285.138 121.352)" stroke="#F6F6F6" stroke-width="0.247458"/>
</g>
<g opacity="0.83">
<rect width="4.20935" height="4.20935" transform="matrix(0.866025 0.5 7.53041e-05 1 283.105 19.1586)" fill="#DEE1E3"/>
<rect width="4.20935" height="4.20935" transform="matrix(0.866025 0.5 7.53041e-05 1 297.282 27.3433)" fill="#DEE1E3"/>
<rect width="4.20935" height="4.20935" transform="matrix(0.866025 0.5 7.53041e-05 1 311.458 35.5283)" fill="#F3C21C"/>
<rect width="4.20935" height="4.20935" transform="matrix(0.866025 0.5 7.53041e-05 1 325.635 43.7132)" fill="#DEE1E3"/>
<rect width="4.20935" height="4.20935" transform="matrix(0.866025 0.5 7.53041e-05 1 339.812 51.8979)" fill="#DEE1E3"/>
</g>
</g>
<rect opacity="0.66" width="60.2529" height="6.54993" transform="matrix(4.36486e-08 1 0.865676 -0.500605 353.456 50.7261)" fill="#C2C7CB"/>
<rect width="40.5326" height="6.54993" transform="matrix(4.36486e-08 1 0.865676 -0.500605 353.456 71.6079)" fill="url(#paint11_linear_6893_26200)"/>
<rect opacity="0.24" width="95.056" height="6.56658" transform="matrix(-0.866025 -0.5 0.866374 -0.499395 353.456 50.8073)" fill="#AEB4BC"/>
<g clip-path="url(#clip3_6893_26200)">
<rect opacity="0.09" width="94.1871" height="60.6329" transform="matrix(-0.866025 0.5 7.53472e-05 -1 115.34 80.6289)" fill="#AEB4BC"/>
<g opacity="0.9">
<path d="M101.881 73.9692L95.472 77.6694L95.4716 82.1096L101.881 78.4095L101.881 73.9692Z" fill="#02C076"/>
<path d="M101.881 73.9692L95.472 77.6694L95.4727 67.3089L101.882 63.6087L101.881 73.9692Z" fill="#F1BB0D"/>
<path d="M92.0542 69.2833L85.6453 72.9835L85.6442 87.7842L92.0531 84.0841L92.0542 69.2833Z" fill="#02C076"/>
<path d="M92.0552 55.4693L85.6463 59.1695L85.6453 72.9835L92.0542 69.2833L92.0552 55.4693Z" fill="#F1BB0D"/>
<path d="M82.2451 69.8388L75.8184 73.5493L75.8172 89.2156L82.2439 85.5051L82.2451 69.8388Z" fill="#F1BB0D"/>
<path d="M82.2441 85.3062L75.8352 89.0063L75.8349 93.4466L82.2438 89.7464L82.2441 85.3062Z" fill="#02C076"/>
<path d="M62.5891 92.2148L56.1802 95.915L56.1795 104.795L62.5884 101.095L62.5891 92.2148Z" fill="#02C076"/>
<path d="M72.417 80.6201L66.0081 84.3203L66.007 99.121L72.4159 95.4208L72.417 80.6201Z" fill="#02C076"/>
<path d="M72.418 66.8061L66.0091 70.5063L66.0081 84.3203L72.417 80.6201L72.418 66.8061Z" fill="#F1BB0D"/>
<path d="M62.5899 81.361L56.181 85.0612L56.1802 95.915L62.5891 92.2148L62.5899 81.361Z" fill="#F1BB0D"/>
<path d="M52.7795 91.9581L46.3706 95.6583L46.3695 110.459L52.7784 106.759L52.7795 91.9581Z" fill="#02C076"/>
<path d="M52.7806 78.1441L46.3717 81.8443L46.3706 95.6583L52.7795 91.9581L52.7806 78.1441Z" fill="#F1BB0D"/>
</g>
</g>
<rect opacity="0.66" width="56.4616" height="4.76146" transform="matrix(-4.36486e-08 1 -0.865676 -0.500605 40.1218 64.6222)" fill="#C2C7CB"/>
<rect opacity="0.24" width="80.7759" height="4.76146" transform="matrix(0.866025 -0.5 -0.866374 -0.499395 40.24 64.7657)" fill="#AEB4BC"/>
<path opacity="0.17" d="M452.075 166.668L498.834 193.662L452.436 220.447L405.677 193.454L452.075 166.668Z" fill="#CACED3"/>
<rect opacity="0.18" width="42.9399" height="54.0428" transform="matrix(-4.37114e-08 1 -0.865988 -0.500065 452.478 220.506)" fill="url(#paint12_linear_6893_26200)"/>
<rect opacity="0.32" width="42.2873" height="53.6034" transform="matrix(4.37114e-08 1 0.865988 -0.500065 452.478 220.462)" fill="url(#paint13_linear_6893_26200)"/>
<path opacity="0.17" d="M66.3391 164.817L113.098 191.811L66.7002 218.597L19.9414 191.603L66.3391 164.817Z" fill="#CACED3"/>
<rect opacity="0.18" width="42.9399" height="54.0428" transform="matrix(-4.37114e-08 1 -0.865988 -0.500065 66.7417 218.656)" fill="url(#paint14_linear_6893_26200)"/>
<rect opacity="0.32" width="42.2873" height="53.6034" transform="matrix(4.37114e-08 1 0.865988 -0.500065 66.7417 218.611)" fill="url(#paint15_linear_6893_26200)"/>
<g filter="url(#filter0_b_6893_26200)">
<path d="M143.96 152.533C141.909 153.717 141.909 155.637 143.96 156.822L256.362 221.717C258.414 222.901 261.739 222.901 263.791 221.717L374.748 157.656C376.799 156.471 376.799 154.551 374.748 153.367L262.346 88.4716C260.295 87.2873 256.969 87.2873 254.918 88.4716L143.96 152.533Z" fill="url(#paint16_linear_6893_26200)" fill-opacity="0.1"/>
<path d="M144.635 152.923C142.957 153.892 142.957 155.463 144.635 156.432L257.038 221.327C258.716 222.296 261.437 222.296 263.115 221.327L374.073 157.266C375.751 156.297 375.751 154.726 374.073 153.757L261.67 88.8615C259.992 87.8925 257.271 87.8925 255.593 88.8615L144.635 152.923Z" stroke="url(#paint17_linear_6893_26200)" stroke-width="1.5595"/>
</g>
<g opacity="0.2">
<path d="M341.05 139.372L313.819 155.094L286.588 139.372L313.819 123.649L341.05 139.372Z" stroke="#CACED3" stroke-miterlimit="10"/>
<path d="M313.816 123.65L286.585 139.373L259.354 123.65L286.585 107.928L313.816 123.65Z" stroke="#CACED3" stroke-miterlimit="10"/>
<path d="M286.588 107.927L259.357 123.649L232.126 107.927L259.357 92.2048L286.588 107.927Z" stroke="#CACED3" stroke-miterlimit="10"/>
<path d="M286.588 139.372L259.354 155.094L232.123 139.372L259.354 123.65L286.588 139.372Z" stroke="#CACED3" stroke-miterlimit="10"/>
<path d="M259.357 123.65L232.123 139.373L204.892 123.65L232.123 107.928L259.357 123.65Z" stroke="#CACED3" stroke-miterlimit="10"/>
<path d="M259.354 155.095L232.123 170.817L204.892 155.095L232.123 139.372L259.354 155.095Z" stroke="#CACED3" stroke-miterlimit="10"/>
<path d="M313.819 155.095L286.588 170.817L259.354 155.095L286.588 139.372L313.819 155.095Z" stroke="#CACED3" stroke-miterlimit="10"/>
<path d="M368.281 155.095L341.05 170.817L313.819 155.095L341.05 139.372L368.281 155.095Z" stroke="#CACED3" stroke-miterlimit="10"/>
<path d="M232.123 139.372L204.892 155.094L177.658 139.372L204.892 123.65L232.123 139.372Z" stroke="#CACED3" stroke-miterlimit="10"/>
<path d="M204.892 155.095L177.658 170.817L150.427 155.095L177.658 139.372L204.892 155.095Z" stroke="#CACED3" stroke-miterlimit="10"/>
<path d="M341.05 170.817L313.819 186.539L286.588 170.817L313.819 155.094L341.05 170.817Z" stroke="#CACED3" stroke-miterlimit="10"/>
<path d="M286.588 170.817L259.354 186.539L232.123 170.817L259.354 155.094L286.588 170.817Z" stroke="#CACED3" stroke-miterlimit="10"/>
<path d="M259.354 186.539L232.123 202.261L204.892 186.539L232.123 170.817L259.354 186.539Z" stroke="#CACED3" stroke-miterlimit="10"/>
<path d="M313.819 186.539L286.588 202.261L259.354 186.539L286.588 170.817L313.819 186.539Z" stroke="#CACED3" stroke-miterlimit="10"/>
<path d="M232.123 170.817L204.892 186.539L177.658 170.817L204.892 155.094L232.123 170.817Z" stroke="#CACED3" stroke-miterlimit="10"/>
<path d="M286.588 202.261L259.354 217.983L232.123 202.261L259.354 186.539L286.588 202.261Z" stroke="#CACED3" stroke-miterlimit="10"/>
</g>
<path d="M275.422 132.079L279.732 134.568L280.731 133.991L276.421 131.502L277.999 130.591L264.013 122.517L262.435 123.428L254.131 118.634L253.132 119.211L261.435 124.005L259.857 124.916L273.843 132.991L275.422 132.079Z" fill="url(#paint18_linear_6893_26200)"/>
<path d="M291.098 116.168L293.935 117.806L295.508 116.897L304.158 121.891L302.585 122.8L308.085 125.975L307.085 126.552L301.586 123.377L300.012 124.285L291.362 119.291L292.935 118.383L290.098 116.745L291.098 116.168Z" fill="url(#paint19_linear_6893_26200)"/>
<path d="M254.448 132.642L271.339 142.393L269.766 143.302L275.115 146.389L274.115 146.966L268.766 143.879L267.193 144.787L250.302 135.036L254.448 132.642Z" fill="url(#paint20_linear_6893_26200)"/>
<path d="M273.944 154.757L272.37 155.666L250.815 143.222L254.962 140.828L276.516 153.272L274.943 154.18L284.905 159.931L283.905 160.508L273.944 154.757Z" fill="url(#paint21_linear_6893_26200)"/>
<path d="M275.662 115.146L284.529 120.266L286.102 119.357L296.568 125.399L294.995 126.307L297.099 127.522L296.099 128.099L293.995 126.884L292.422 127.793L281.956 121.751L283.53 120.843L274.662 115.723L275.662 115.146Z" fill="url(#paint22_linear_6893_26200)"/>
<path d="M278.097 163.891L275.292 162.271L274.292 162.848L277.098 164.468L275.524 165.376L279.901 167.903L281.475 166.995L283.319 168.06L284.319 167.483L282.474 166.418L284.048 165.51L279.671 162.983L278.097 163.891Z" fill="url(#paint23_linear_6893_26200)"/>
<path d="M249.279 163.033L251.299 164.2L252.873 163.291L260.591 167.747L259.018 168.656L265.004 172.112L264.005 172.689L258.018 169.233L256.445 170.141L248.726 165.685L250.3 164.777L248.28 163.61L249.279 163.033Z" fill="url(#paint24_linear_6893_26200)"/>
<path d="M258.519 185.301L256.946 186.21L230.346 170.854L234.492 168.46L261.092 183.816L259.519 184.724L262.913 186.684L261.914 187.261L258.519 185.301Z" fill="url(#paint25_linear_6893_26200)"/>
<path d="M276.092 168.807L271.946 171.2L259.824 164.203L261.398 163.294L256.46 160.443L257.459 159.866L262.398 162.717L263.971 161.809L276.092 168.807Z" fill="url(#paint26_linear_6893_26200)"/>
<path d="M240.913 181.873L237.309 179.792L236.31 180.369L239.914 182.45L238.34 183.358L250.461 190.356L252.035 189.448L259.543 193.782L260.542 193.205L253.035 188.871L254.608 187.962L242.486 180.965L240.913 181.873Z" fill="url(#paint27_linear_6893_26200)"/>
<path d="M207.044 178.099L212.343 181.159L213.916 180.251L226.038 187.248L224.465 188.157L229.479 191.051L228.479 191.628L223.465 188.734L221.891 189.642L209.77 182.644L211.344 181.736L206.044 178.676L207.044 178.099Z" fill="url(#paint28_linear_6893_26200)"/>
<path d="M229.017 182.895L224.752 180.433L223.752 181.01L228.017 183.472L226.443 184.38L232.011 187.595L233.585 186.686L236.672 188.468L237.671 187.891L234.584 186.109L236.158 185.201L230.59 181.987L229.017 182.895Z" fill="url(#paint29_linear_6893_26200)"/>
<path d="M246.264 167.366L242.118 169.76L233.812 164.965L235.386 164.056L228.541 160.105L229.541 159.528L236.385 163.479L237.959 162.571L246.264 167.366Z" fill="url(#paint30_linear_6893_26200)"/>
<path d="M254.713 126.722L251.778 125.028L250.779 125.605L253.714 127.299L252.14 128.207L265.34 135.828L266.913 134.919L273.019 138.444L274.018 137.867L267.913 134.342L269.486 133.434L256.286 125.814L254.713 126.722Z" fill="url(#paint31_linear_6893_26200)"/>
<path d="M262.544 115.463L277.319 123.993L278.893 123.085L290.829 129.976L289.256 130.884L291.798 132.352L290.799 132.929L288.256 131.461L286.682 132.369L274.746 125.479L276.32 124.57L261.544 116.04L262.544 115.463Z" fill="url(#paint32_linear_6893_26200)"/>
<mask id="path-94-inside-1_6893_26200" fill="white">
<path d="M79.9763 166.681L133.227 197.426L133.357 178.008L80.1064 147.264L79.9763 166.681Z"/>
</mask>
<path d="M133.363 177.075L134.172 177.542L134.159 179.408L133.351 178.942L133.363 177.075ZM80.1001 148.197L79.2918 147.731L79.3043 145.864L80.1126 146.331L80.1001 148.197ZM80.5352 146.575L81.3435 147.041L81.331 148.908L80.5227 148.441L80.5352 146.575ZM87.2847 152.345L86.4765 151.879L86.489 150.012L87.2972 150.479L87.2847 152.345ZM88.1425 150.967L88.9508 151.433L88.9383 153.3L88.13 152.833L88.1425 150.967ZM94.892 156.737L94.0837 156.271L94.0962 154.404L94.9045 154.871L94.892 156.737ZM95.7497 155.359L96.558 155.826L96.5455 157.692L95.7372 157.225L95.7497 155.359ZM102.499 161.13L101.691 160.663L101.703 158.796L102.512 159.263L102.499 161.13ZM103.357 159.751L104.165 160.218L104.153 162.084L103.344 161.618L103.357 159.751ZM110.106 165.522L109.298 165.055L109.311 163.188L110.119 163.655L110.106 165.522ZM110.964 164.143L111.773 164.61L111.76 166.476L110.952 166.01L110.964 164.143ZM117.714 169.914L116.905 169.447L116.918 167.58L117.726 168.047L117.714 169.914ZM118.571 168.535L119.38 169.002L119.367 170.868L118.559 170.402L118.571 168.535ZM125.321 174.306L124.513 173.839L124.525 171.972L125.333 172.439L125.321 174.306ZM126.179 172.927L126.987 173.394L126.975 175.26L126.166 174.794L126.179 172.927ZM132.928 178.698L132.12 178.231L132.132 176.364L132.941 176.831L132.928 178.698ZM80.1126 146.331L80.5352 146.575L80.5227 148.441L80.1001 148.197L80.1126 146.331ZM87.2972 150.479L88.1425 150.967L88.13 152.833L87.2847 152.345L87.2972 150.479ZM94.9045 154.871L95.7497 155.359L95.7372 157.225L94.892 156.737L94.9045 154.871ZM102.512 159.263L103.357 159.751L103.344 161.618L102.499 161.13L102.512 159.263ZM110.119 163.655L110.964 164.143L110.952 166.01L110.106 165.522L110.119 163.655ZM117.726 168.047L118.571 168.535L118.559 170.402L117.714 169.914L117.726 168.047ZM125.333 172.439L126.179 172.927L126.166 174.794L125.321 174.306L125.333 172.439ZM132.941 176.831L133.363 177.075L133.351 178.942L132.928 178.698L132.941 176.831ZM133.37 176.142L134.986 177.075L134.961 180.808L133.345 179.875L133.37 176.142ZM80.0939 149.131L78.4773 148.197L78.5023 144.464L80.1189 145.397L80.0939 149.131ZM80.5415 145.641L82.1581 146.575L82.1331 150.308L80.5165 149.375L80.5415 145.641ZM87.2785 153.279L85.6619 152.345L85.6869 148.612L87.3035 149.545L87.2785 153.279ZM88.1487 150.034L89.7653 150.967L89.7403 154.7L88.1237 153.767L88.1487 150.034ZM94.8857 157.671L93.2692 156.737L93.2942 153.004L94.9107 153.938L94.8857 157.671ZM95.756 154.426L97.3726 155.359L97.3476 159.092L95.731 158.159L95.756 154.426ZM102.493 162.063L100.876 161.13L100.901 157.396L102.518 158.33L102.493 162.063ZM103.363 158.818L104.98 159.751L104.955 163.484L103.338 162.551L103.363 158.818ZM110.1 166.455L108.484 165.522L108.509 161.788L110.125 162.722L110.1 166.455ZM110.97 163.21L112.587 164.143L112.562 167.876L110.945 166.943L110.97 163.21ZM117.707 170.847L116.091 169.914L116.116 166.18L117.732 167.114L117.707 170.847ZM118.578 167.602L120.194 168.535L120.169 172.268L118.553 171.335L118.578 167.602ZM125.315 175.239L123.698 174.306L123.723 170.572L125.34 171.506L125.315 175.239ZM126.185 171.994L127.802 172.927L127.777 176.66L126.16 175.727L126.185 171.994ZM132.922 179.631L131.305 178.698L131.33 174.964L132.947 175.898L132.922 179.631ZM80.1189 145.397L80.5415 145.641L80.5165 149.375L80.0939 149.131L80.1189 145.397ZM87.3035 149.545L88.1487 150.034L88.1237 153.767L87.2785 153.279L87.3035 149.545ZM94.9107 153.938L95.756 154.426L95.731 158.159L94.8857 157.671L94.9107 153.938ZM102.518 158.33L103.363 158.818L103.338 162.551L102.493 162.063L102.518 158.33ZM110.125 162.722L110.97 163.21L110.945 166.943L110.1 166.455L110.125 162.722ZM117.732 167.114L118.578 167.602L118.553 171.335L117.707 170.847L117.732 167.114ZM125.34 171.506L126.185 171.994L126.16 175.727L125.315 175.239L125.34 171.506ZM132.947 175.898L133.37 176.142L133.345 179.875L132.922 179.631L132.947 175.898Z" fill="#B7BDC6" mask="url(#path-94-inside-1_6893_26200)"/>
<mask id="path-96-inside-2_6893_26200" fill="white">
<path d="M359.415 98.6602L395.928 119.741L396.032 104.163L359.52 83.0821L359.415 98.6602Z"/>
</mask>
<path d="M396.039 103.229L396.847 103.696L396.835 105.563L396.026 105.096L396.039 103.229ZM359.513 84.0154L358.705 83.5487L358.718 81.6821L359.526 82.1488L359.513 84.0154ZM359.932 82.383L360.74 82.8497L360.727 84.7163L359.919 84.2496L359.932 82.383ZM366.41 87.9973L365.602 87.5306L365.614 85.664L366.423 86.1307L366.41 87.9973ZM367.234 86.5992L368.042 87.0658L368.03 88.9324L367.222 88.4658L367.234 86.5992ZM373.713 92.2135L372.905 91.7468L372.917 89.8802L373.725 90.3468L373.713 92.2135ZM374.537 90.8153L375.345 91.282L375.333 93.1486L374.524 92.6819L374.537 90.8153ZM381.015 96.4296L380.207 95.9629L380.22 94.0963L381.028 94.563L381.015 96.4296ZM381.839 95.0314L382.648 95.4981L382.635 97.3647L381.827 96.8981L381.839 95.0314ZM388.318 100.646L387.51 100.179L387.522 98.3125L388.33 98.7791L388.318 100.646ZM389.142 99.2476L389.95 99.7142L389.938 101.581L389.129 101.114L389.142 99.2476ZM395.621 104.862L394.812 104.395L394.825 102.529L395.633 102.995L395.621 104.862ZM359.526 82.1488L359.932 82.383L359.919 84.2496L359.513 84.0154L359.526 82.1488ZM366.423 86.1307L367.234 86.5992L367.222 88.4658L366.41 87.9973L366.423 86.1307ZM373.725 90.3468L374.537 90.8153L374.524 92.6819L373.713 92.2135L373.725 90.3468ZM381.028 94.563L381.839 95.0314L381.827 96.8981L381.015 96.4296L381.028 94.563ZM388.33 98.7791L389.142 99.2476L389.129 101.114L388.318 100.646L388.33 98.7791ZM395.633 102.995L396.039 103.229L396.026 105.096L395.621 104.862L395.633 102.995ZM396.045 102.296L397.662 103.23L397.637 106.963L396.02 106.029L396.045 102.296ZM359.507 84.9487L357.891 84.0154L357.916 80.2821L359.532 81.2155L359.507 84.9487ZM359.938 81.4497L361.554 82.383L361.529 86.1163L359.913 85.1829L359.938 81.4497ZM366.404 88.9306L364.787 87.9973L364.812 84.264L366.429 85.1974L366.404 88.9306ZM367.24 85.6658L368.857 86.5992L368.832 90.3324L367.215 89.3991L367.24 85.6658ZM373.707 93.1468L372.09 92.2134L372.115 88.4802L373.732 89.4135L373.707 93.1468ZM374.543 89.882L376.16 90.8153L376.135 94.5486L374.518 93.6152L374.543 89.882ZM381.009 97.3629L379.393 96.4296L379.418 92.6963L381.034 93.6297L381.009 97.3629ZM381.846 94.0981L383.462 95.0315L383.437 98.7647L381.821 97.8314L381.846 94.0981ZM388.312 101.579L386.695 100.646L386.72 96.9125L388.337 97.8458L388.312 101.579ZM389.148 98.3143L390.765 99.2476L390.74 102.981L389.123 102.048L389.148 98.3143ZM395.614 105.795L393.998 104.862L394.023 101.129L395.639 102.062L395.614 105.795ZM359.532 81.2155L359.938 81.4497L359.913 85.1829L359.507 84.9487L359.532 81.2155ZM366.429 85.1974L367.24 85.6658L367.215 89.3991L366.404 88.9306L366.429 85.1974ZM373.732 89.4135L374.543 89.882L374.518 93.6152L373.707 93.1468L373.732 89.4135ZM381.034 93.6297L381.846 94.0981L381.821 97.8314L381.009 97.3629L381.034 93.6297ZM388.337 97.8458L389.148 98.3143L389.123 102.048L388.312 101.579L388.337 97.8458ZM395.639 102.062L396.045 102.296L396.02 106.029L395.614 105.795L395.639 102.062Z" fill="#B7BDC6" mask="url(#path-96-inside-2_6893_26200)"/>
<mask id="path-98-inside-3_6893_26200" fill="white">
<path d="M44.6702 126.214L44.6702 164.817L80.6702 144.353L80.6702 105.75L44.6702 126.214Z"/>
</mask>
<path d="M81.4816 143.892L81.4816 144.825L79.8588 145.748L79.8588 144.814L81.4816 143.892ZM79.8588 106.211L79.8588 105.277L81.4816 104.355L81.4816 105.288L79.8588 106.211ZM81.4816 105.717L81.4816 106.651L79.8588 107.573L79.8588 106.64L81.4816 105.717ZM79.8588 113.503L79.8588 112.569L81.4816 111.647L81.4816 112.58L79.8588 113.503ZM81.4816 113.438L81.4816 114.371L79.8588 115.294L79.8588 114.36L81.4816 113.438ZM79.8588 121.223L79.8588 120.29L81.4816 119.367L81.4816 120.301L79.8588 121.223ZM81.4816 121.159L81.4816 122.092L79.8588 123.014L79.8588 122.081L81.4816 121.159ZM79.8588 128.944L79.8588 128.011L81.4816 127.088L81.4816 128.022L79.8588 128.944ZM81.4816 128.879L81.4816 129.813L79.8588 130.735L79.8588 129.802L81.4816 128.879ZM79.8588 136.665L79.8588 135.731L81.4816 134.809L81.4816 135.742L79.8588 136.665ZM81.4816 136.6L81.4816 137.533L79.8588 138.456L79.8588 137.523L81.4816 136.6ZM79.8588 144.385L79.8588 143.452L81.4816 142.53L81.4816 143.463L79.8588 144.385ZM81.4816 105.288L81.4816 105.717L79.8588 106.64L79.8588 106.211L81.4816 105.288ZM81.4816 112.58L81.4816 113.438L79.8588 114.36L79.8588 113.503L81.4816 112.58ZM81.4816 120.301L81.4816 121.159L79.8588 122.081L79.8588 121.223L81.4816 120.301ZM81.4816 128.022L81.4816 128.879L79.8588 129.802L79.8588 128.944L81.4816 128.022ZM81.4816 135.742L81.4816 136.6L79.8588 137.523L79.8588 136.665L81.4816 135.742ZM81.4816 143.463L81.4816 143.892L79.8588 144.814L79.8588 144.385L81.4816 143.463ZM82.293 143.431L82.293 145.297L79.0474 147.142L79.0474 145.276L82.293 143.431ZM79.0474 106.672L79.0474 104.805L82.293 102.96L82.293 104.827L79.0474 106.672ZM82.293 105.256L82.293 107.123L79.0474 108.968L79.0474 107.101L82.293 105.256ZM79.0474 113.964L79.0474 112.097L82.293 110.252L82.293 112.119L79.0474 113.964ZM82.293 112.977L82.293 114.843L79.0474 116.688L79.0474 114.822L82.293 112.977ZM79.0474 121.685L79.0474 119.818L82.293 117.973L82.293 119.84L79.0474 121.685ZM82.293 120.697L82.293 122.564L79.0474 124.409L79.0474 122.542L82.293 120.697ZM79.0474 129.405L79.0474 127.539L82.293 125.694L82.293 127.56L79.0474 129.405ZM82.293 128.418L82.293 130.285L79.0474 132.13L79.0474 130.263L82.293 128.418ZM79.0474 137.126L79.0474 135.259L82.293 133.414L82.293 135.281L79.0474 137.126ZM82.293 136.139L82.293 138.006L79.0474 139.85L79.0474 137.984L82.293 136.139ZM79.0474 144.847L79.0474 142.98L82.293 141.135L82.293 143.002L79.0474 144.847ZM82.293 104.827L82.293 105.256L79.0474 107.101L79.0474 106.672L82.293 104.827ZM82.293 112.119L82.293 112.977L79.0474 114.822L79.0474 113.964L82.293 112.119ZM82.293 119.84L82.293 120.697L79.0474 122.542L79.0474 121.685L82.293 119.84ZM82.293 127.56L82.293 128.418L79.0474 130.263L79.0474 129.405L82.293 127.56ZM82.293 135.281L82.293 136.139L79.0474 137.984L79.0474 137.126L82.293 135.281ZM82.293 143.002L82.293 143.431L79.0474 145.276L79.0474 144.847L82.293 143.002Z" fill="#B7BDC6" mask="url(#path-98-inside-3_6893_26200)"/>
<g opacity="0.42">
<mask id="path-100-inside-4_6893_26200" fill="white">
<path d="M437.757 214.158L401.011 235.374L400.881 215.956L437.627 194.741L437.757 214.158Z"/>
</mask>
<path d="M400.874 215.023L400.066 215.49L400.078 217.356L400.887 216.89L400.874 215.023ZM437.633 195.674L438.442 195.207L438.429 193.341L437.621 193.807L437.633 195.674ZM437.212 194.043L436.404 194.51L436.417 196.376L437.225 195.91L437.212 194.043ZM430.692 199.681L431.501 199.215L431.488 197.348L430.68 197.815L430.692 199.681ZM429.863 198.286L429.055 198.753L429.067 200.62L429.876 200.153L429.863 198.286ZM423.343 203.925L424.151 203.458L424.139 201.591L423.33 202.058L423.343 203.925ZM422.514 202.529L421.706 202.996L421.718 204.863L422.526 204.396L422.514 202.529ZM415.994 208.168L416.802 207.701L416.789 205.834L415.981 206.301L415.994 208.168ZM415.165 206.773L414.356 207.239L414.369 209.106L415.177 208.639L415.165 206.773ZM408.644 212.411L409.453 211.944L409.44 210.078L408.632 210.544L408.644 212.411ZM407.815 211.016L407.007 211.482L407.019 213.349L407.828 212.882L407.815 211.016ZM401.295 216.654L402.103 216.187L402.091 214.321L401.283 214.787L401.295 216.654ZM437.621 193.807L437.212 194.043L437.225 195.91L437.633 195.674L437.621 193.807ZM430.68 197.815L429.863 198.286L429.876 200.153L430.692 199.681L430.68 197.815ZM423.33 202.058L422.514 202.529L422.526 204.396L423.343 203.925L423.33 202.058ZM415.981 206.301L415.165 206.773L415.177 208.639L415.994 208.168L415.981 206.301ZM408.632 210.544L407.815 211.016L407.828 212.882L408.644 212.411L408.632 210.544ZM401.283 214.787L400.874 215.023L400.887 216.89L401.295 216.654L401.283 214.787ZM400.868 214.09L399.251 215.023L399.276 218.756L400.893 217.823L400.868 214.09ZM437.64 196.607L439.256 195.674L439.231 191.941L437.615 192.874L437.64 196.607ZM437.206 193.11L435.59 194.043L435.615 197.776L437.231 196.843L437.206 193.11ZM430.699 200.615L432.315 199.681L432.29 195.948L430.674 196.882L430.699 200.615ZM429.857 197.353L428.24 198.286L428.265 202.02L429.882 201.086L429.857 197.353ZM423.349 204.858L424.966 203.925L424.941 200.191L423.324 201.125L423.349 204.858ZM422.508 201.596L420.891 202.529L420.916 206.263L422.533 205.329L422.508 201.596ZM416 209.101L417.617 208.168L417.591 204.434L415.975 205.368L416 209.101ZM415.158 205.839L413.542 206.773L413.567 210.506L415.183 209.572L415.158 205.839ZM408.651 213.344L410.267 212.411L410.242 208.678L408.626 209.611L408.651 213.344ZM407.809 210.082L406.192 211.016L406.217 214.749L407.834 213.816L407.809 210.082ZM401.301 217.587L402.918 216.654L402.893 212.921L401.276 213.854L401.301 217.587ZM437.615 192.874L437.206 193.11L437.231 196.843L437.64 196.607L437.615 192.874ZM430.674 196.882L429.857 197.353L429.882 201.086L430.699 200.615L430.674 196.882ZM423.324 201.125L422.508 201.596L422.533 205.329L423.349 204.858L423.324 201.125ZM415.975 205.368L415.158 205.839L415.183 209.572L416 209.101L415.975 205.368ZM408.626 209.611L407.809 210.082L407.834 213.816L408.651 213.344L408.626 209.611ZM401.276 213.854L400.868 214.09L400.893 217.823L401.301 217.587L401.276 213.854Z" fill="#76808F" mask="url(#path-100-inside-4_6893_26200)"/>
<mask id="path-102-inside-5_6893_26200" fill="white">
<path d="M420.314 109.614L396.162 123.558L396.032 104.141L420.184 90.1968L420.314 109.614Z"/>
</mask>
<path d="M396.026 103.207L395.218 103.674L395.23 105.541L396.039 105.074L396.026 103.207ZM420.19 91.1301L420.998 90.6635L420.986 88.7968L420.177 89.2635L420.19 91.1301ZM419.73 89.5217L418.922 89.9884L418.934 91.855L419.743 91.3883L419.73 89.5217ZM412.587 95.5198L413.395 95.0532L413.383 93.1865L412.574 93.6532L412.587 95.5198ZM411.68 94.1697L410.871 94.6363L410.884 96.5029L411.692 96.0363L411.68 94.1697ZM404.536 100.168L405.345 99.7011L405.332 97.8345L404.524 98.3011L404.536 100.168ZM403.629 98.8176L402.821 99.2842L402.833 101.151L403.642 100.684L403.629 98.8176ZM396.486 104.816L397.294 104.349L397.282 102.482L396.473 102.949L396.486 104.816ZM420.177 89.2635L419.73 89.5217L419.743 91.3883L420.19 91.1301L420.177 89.2635ZM412.574 93.6532L411.68 94.1697L411.692 96.0363L412.587 95.5198L412.574 93.6532ZM404.524 98.3011L403.629 98.8176L403.642 100.684L404.536 100.168L404.524 98.3011ZM396.473 102.949L396.026 103.207L396.039 105.074L396.486 104.816L396.473 102.949ZM396.02 102.274L394.403 103.207L394.428 106.941L396.045 106.007L396.02 102.274ZM420.196 92.0634L421.813 91.1301L421.788 87.3969L420.171 88.3302L420.196 92.0634ZM419.724 88.5884L418.107 89.5217L418.132 93.255L419.749 92.3217L419.724 88.5884ZM412.593 96.4532L414.21 95.5198L414.185 91.7866L412.568 92.7199L412.593 96.4532ZM411.673 93.2363L410.057 94.1697L410.082 97.9029L411.698 96.9696L411.673 93.2363ZM404.543 101.101L406.159 100.168L406.134 96.4345L404.518 97.3678L404.543 101.101ZM403.623 97.8843L402.006 98.8176L402.031 102.551L403.648 101.618L403.623 97.8843ZM396.492 105.749L398.109 104.816L398.084 101.082L396.467 102.016L396.492 105.749ZM420.171 88.3302L419.724 88.5884L419.749 92.3217L420.196 92.0634L420.171 88.3302ZM412.568 92.7199L411.673 93.2363L411.698 96.9696L412.593 96.4532L412.568 92.7199ZM404.518 97.3678L403.623 97.8843L403.648 101.618L404.543 101.101L404.518 97.3678ZM396.467 102.016L396.02 102.274L396.045 106.007L396.492 105.749L396.467 102.016Z" fill="#76808F" mask="url(#path-102-inside-5_6893_26200)"/>
<mask id="path-104-inside-6_6893_26200" fill="white">
<path d="M471.968 186.582L471.968 214.463L435.968 193.999L435.968 166.118L471.968 186.582Z"/>
</mask>
<path d="M435.157 193.538L435.157 194.471L436.78 195.394L436.78 194.46L435.157 193.538ZM436.78 166.579L436.78 165.646L435.157 164.723L435.157 165.657L436.78 166.579ZM435.157 166.173L435.157 167.106L436.78 168.029L436.78 167.095L435.157 166.173ZM436.78 175.357L436.78 174.423L435.157 173.501L435.157 174.434L436.78 175.357ZM435.157 175.467L435.157 176.4L436.78 177.323L436.78 176.389L435.157 175.467ZM436.78 184.65L436.78 183.717L435.157 182.794L435.157 183.728L436.78 184.65ZM435.157 184.76L435.157 185.694L436.78 186.616L436.78 185.683L435.157 184.76ZM436.78 193.944L436.78 193.011L435.157 192.088L435.157 193.022L436.78 193.944ZM435.157 165.657L435.157 166.173L436.78 167.095L436.78 166.579L435.157 165.657ZM435.157 174.434L435.157 175.467L436.78 176.389L436.78 175.357L435.157 174.434ZM435.157 183.728L435.157 184.76L436.78 185.683L436.78 184.65L435.157 183.728ZM435.157 193.022L435.157 193.538L436.78 194.46L436.78 193.944L435.157 193.022ZM434.345 193.077L434.345 194.943L437.591 196.788L437.591 194.922L434.345 193.077ZM437.591 167.04L437.591 165.174L434.345 163.329L434.345 165.195L437.591 167.04ZM434.345 165.712L434.345 167.578L437.591 169.423L437.591 167.557L434.345 165.712ZM437.591 175.818L437.591 173.951L434.345 172.106L434.345 173.973L437.591 175.818ZM434.345 175.005L434.345 176.872L437.591 178.717L437.591 176.85L434.345 175.005ZM437.591 185.112L437.591 183.245L434.345 181.4L434.345 183.267L437.591 185.112ZM434.345 184.299L434.345 186.166L437.591 188.011L437.591 186.144L434.345 184.299ZM437.591 194.405L437.591 192.539L434.345 190.694L434.345 192.56L437.591 194.405ZM434.345 165.195L434.345 165.712L437.591 167.557L437.591 167.04L434.345 165.195ZM434.345 173.973L434.345 175.005L437.591 176.85L437.591 175.818L434.345 173.973ZM434.345 183.267L434.345 184.299L437.591 186.144L437.591 185.112L434.345 183.267ZM434.345 192.56L434.345 193.077L437.591 194.922L437.591 194.405L434.345 192.56Z" fill="#76808F" mask="url(#path-104-inside-6_6893_26200)"/>
</g>
<path d="M180.369 60.4529L238.647 26.8059C243.744 23.8634 243.76 19.065 238.683 16.0884C233.606 13.1118 225.359 13.0842 220.262 16.0267L161.984 49.6737L180.369 60.4529Z" fill="#474D57"/>
<path d="M228.119 69.513C228.119 73.8948 225.042 79.2231 221.247 81.414L168.562 111.832L168.567 54.1779L228.123 19.7932L228.119 69.513Z" fill="#F5F5F5"/>
<path d="M232.411 72.7322C232.411 77.1141 229.334 82.4424 225.54 84.6333L172.855 115.051L172.859 56.5812L232.415 22.1964L232.411 72.7322Z" fill="url(#paint33_linear_6893_26200)"/>
<path fill-rule="evenodd" clip-rule="evenodd" d="M242.416 21.8908L242.49 21.8489L242.486 75.0514C242.486 79.4332 239.397 84.7406 235.588 86.9058L179.898 118.557L179.903 60.0847C180.424 59.8666 180.924 59.6235 181.396 59.3553L238.635 26.8257C241.043 25.4572 242.304 23.6835 242.416 21.8908Z" fill="url(#paint34_linear_6893_26200)"/>
<path fill-rule="evenodd" clip-rule="evenodd" d="M238.647 26.8059L180.369 60.4529L161.984 49.6737L220.263 16.0267C225.359 13.0842 233.606 13.1118 238.683 16.0884C243.76 19.065 243.744 23.8634 238.647 26.8059ZM236.662 25.2828L178.076 59.1079L164.127 50.9296L222.714 17.1045C226.581 14.872 232.838 14.8929 236.69 17.1513C240.542 19.4096 240.529 23.0502 236.662 25.2828Z" fill="#CACED3"/>
<path d="M162.013 108.746L164.325 110.082L164.321 50.8477L162.008 49.5125L162.013 108.746Z" fill="#76808F"/>
<path d="M169.297 112.952L164.325 110.081L164.321 50.8474L169.292 53.7179L169.297 112.952Z" fill="#474D57"/>
<path d="M177.938 117.35L180.251 118.685L180.246 60.2973L177.934 58.9621L177.938 117.35Z" fill="#AEB4BC"/>
<path d="M164.289 86.6407L179.9 95.6536L179.899 77.6726L164.288 68.6598L164.289 86.6407Z" fill="#76808F"/>
<path d="M191.404 89.394L179.976 95.992L179.977 78.0228L191.405 71.4248L191.404 89.394Z" fill="#5E6673"/>
<path d="M180.465 77.9768L191.545 71.5794L190.134 70.7644L179.053 77.1619L180.465 77.9768Z" fill="#AEB4BC"/>
<path d="M180.251 77.9768L163.057 68.0498L164.469 67.2348L181.663 77.1619L180.251 77.9768Z" fill="#CACED3"/>
<path d="M219.96 51.4957C214.933 54.3981 210.859 61.4562 210.859 67.2603C210.859 73.0644 214.933 75.4167 219.96 72.5142C224.986 69.6118 229.061 62.5537 229.061 56.7496C229.061 50.9455 224.986 48.5932 219.96 51.4957Z" fill="#76808F"/>
<path fill-rule="evenodd" clip-rule="evenodd" d="M218.443 75.1415C218.443 69.3374 214.369 66.9851 209.342 69.8876C204.316 72.79 200.241 79.8481 200.241 85.6522C200.241 91.4563 204.316 93.8086 209.342 90.9062C214.369 88.0037 218.443 80.9457 218.443 75.1415ZM205.55 82.5866L209.342 84.7757L213.134 78.2071L209.342 76.018L205.55 82.5866Z" fill="url(#paint35_linear_6893_26200)"/>
<path d="M228.302 68.5725L228.302 79.0818L219.201 84.3372L228.302 68.5725Z" fill="url(#paint36_linear_6893_26200)"/>
<path d="M201 73.8293L201 63.32L210.1 58.0647L201 73.8293Z" fill="url(#paint37_linear_6893_26200)"/>
<path opacity="0.24" d="M496.564 139.286L498.898 136.953L501.231 139.286L498.898 141.619L496.564 139.286Z" fill="#76808F"/>
<path opacity="0.74" d="M431.9 109.193V105.46H435.634V109.193H431.9Z" fill="#F8D33A"/>
<path opacity="0.24" d="M61 138.333L63.3333 136L65.6667 138.333L63.3333 140.667L61 138.333Z" fill="#76808F"/>
<path opacity="0.24" d="M252.398 62.3645L254.731 60.0311L257.064 62.3645L254.731 64.6978L252.398 62.3645Z" fill="#76808F"/>
<path opacity="0.74" d="M15.127 111.381L17.527 108.981L19.927 111.381L17.527 113.781L15.127 111.381Z" fill="#F8D33A"/>
<path opacity="0.24" d="M136.779 41.5386V37.8052H140.513V41.5386H136.779Z" fill="#76808F"/>
<path fill-rule="evenodd" clip-rule="evenodd" d="M85.0555 172.532L86.7151 172.533L86.7069 177.404C86.5617 184.373 76.2566 190.003 63.5945 189.917C50.9324 189.831 40.6643 184.145 40.5867 177.186L40.6079 177.069L40.5919 177.016L40.576 176.963L40.5631 172.203L42.2228 172.204C45.6777 167.547 53.9796 164.244 63.6406 164.301C73.3811 164.444 81.665 167.797 85.0502 172.532L85.0555 172.532Z" fill="url(#paint38_linear_6893_26200)"/>
<path d="M40.6321 172.235C40.6195 179.274 50.9248 185.067 63.6346 185.136C76.3445 185.206 86.7026 179.566 86.7681 172.507C86.7807 165.468 76.4754 159.675 63.7655 159.606C51.0027 159.552 40.6446 165.192 40.6321 172.235Z" fill="url(#paint39_linear_6893_26200)"/>
<path d="M73.0334 181.447C82.0937 178.637 85.1925 172.267 80.0044 167.251C74.8163 162.235 63.3042 160.469 54.2439 163.279C45.1836 166.089 42.0848 172.459 47.2728 177.475C52.5299 182.529 64.042 184.294 73.0334 181.447Z" fill="url(#paint40_linear_6893_26200)"/>
<path d="M54.3919 172.655L64.0024 167.296L72.9765 172.547L64.071 177.689L54.3866 172.655L54.3919 172.655Z" fill="#F0B90B"/>
<g opacity="0.4">
<rect width="34.7171" height="24.7507" transform="matrix(0.866025 -0.5 -0.866025 -0.5 440.154 100.54)" fill="#7C7E80"/>
<rect width="34.7171" height="39.7823" transform="matrix(-0.866025 0.5 0.866025 0.5 424.416 56.7395)" fill="#7C7E80"/>
</g>
<path fill-rule="evenodd" clip-rule="evenodd" d="M414.025 78.5821C419.094 81.5088 427.313 81.5088 432.382 78.5821C437.451 75.6555 437.451 70.9105 432.382 67.9838C427.313 65.0572 419.094 65.0572 414.025 67.9838C408.956 70.9105 408.956 75.6555 414.025 78.5821ZM427.519 70.7916L418.888 70.7916L418.888 75.7744L427.519 75.7744L427.519 70.7916Z" fill="#7C7E80"/>
<rect width="24.7977" height="3.31995" transform="matrix(-0.866025 0.5 0.866025 0.5 448.341 75.5132)" fill="#7C7E80"/>
<rect width="16.1476" height="3.31995" transform="matrix(-0.866025 0.5 0.866025 0.5 446.039 83.6079)" fill="#7C7E80"/>
</g>
<defs>
<filter id="filter0_b_6893_26200" x="137.876" y="83.0376" width="242.956" height="144.113" filterUnits="userSpaceOnUse" color-interpolation-filters="sRGB">
<feFlood flood-opacity="0" result="BackgroundImageFix"/>
<feGaussianBlur in="BackgroundImageFix" stdDeviation="2.27289"/>
<feComposite in2="SourceAlpha" operator="in" result="effect1_backgroundBlur_6893_26200"/>
<feBlend mode="normal" in="SourceGraphic" in2="effect1_backgroundBlur_6893_26200" result="shape"/>
</filter>
<linearGradient id="paint0_linear_6893_26200" x1="-60.0165" y1="-96.3374" x2="-9.42861" y2="-118.219" gradientUnits="userSpaceOnUse">
<stop stop-color="#929AA5"/>
<stop offset="1" stop-color="#76808F" stop-opacity="0"/>
</linearGradient>
<linearGradient id="paint1_linear_6893_26200" x1="-39.1683" y1="13.0829" x2="65.9428" y2="-22.4497" gradientUnits="userSpaceOnUse">
<stop stop-color="#6D7581"/>
<stop offset="1" stop-color="#929AA5" stop-opacity="0"/>
</linearGradient>
<linearGradient id="paint2_linear_6893_26200" x1="-12.3882" y1="-3.39908" x2="17.1179" y2="-10.3405" gradientUnits="userSpaceOnUse">
<stop stop-color="#CFD7E2"/>
<stop offset="1" stop-color="#76808F" stop-opacity="0"/>
</linearGradient>
<linearGradient id="paint3_linear_6893_26200" x1="-12.3882" y1="-3.39908" x2="17.1179" y2="-10.3405" gradientUnits="userSpaceOnUse">
<stop stop-color="#CFD7E2"/>
<stop offset="1" stop-color="#76808F" stop-opacity="0"/>
</linearGradient>
<linearGradient id="paint4_linear_6893_26200" x1="11.0568" y1="0.640423" x2="3.90328" y2="14.7331" gradientUnits="userSpaceOnUse">
<stop stop-color="#FCEA9C"/>
<stop offset="1" stop-color="#FCEA9C" stop-opacity="0"/>
</linearGradient>
<linearGradient id="paint5_linear_6893_26200" x1="12.0725" y1="7.58671" x2="2.92432" y2="8.91463" gradientUnits="userSpaceOnUse">
<stop stop-color="#F0B90B"/>
<stop offset="1" stop-color="#F8D33A" stop-opacity="0"/>
</linearGradient>
<linearGradient id="paint6_linear_6893_26200" x1="7.35576" y1="0" x2="7.35576" y2="18.4763" gradientUnits="userSpaceOnUse">
<stop stop-color="#FFD43E"/>
<stop offset="1" stop-color="#FFE887"/>
</linearGradient>
<linearGradient id="paint7_linear_6893_26200" x1="7.35576" y1="0" x2="7.35576" y2="18.4763" gradientUnits="userSpaceOnUse">
<stop stop-color="#F0B90B"/>
<stop offset="1" stop-color="#F8D33A"/>
</linearGradient>
<linearGradient id="paint8_linear_6893_26200" x1="433.277" y1="126.646" x2="416.574" y2="187.07" gradientUnits="userSpaceOnUse">
<stop stop-color="#929AA5"/>
<stop offset="1" stop-color="#929AA5" stop-opacity="0.61"/>
</linearGradient>
<linearGradient id="paint9_linear_6893_26200" x1="439.248" y1="172.812" x2="460.153" y2="136.603" gradientUnits="userSpaceOnUse">
<stop stop-color="#929AA5"/>
<stop offset="1" stop-color="#4A505A"/>
</linearGradient>
<linearGradient id="paint10_linear_6893_26200" x1="318.149" y1="16.6462" x2="270.494" y2="81.5611" gradientUnits="userSpaceOnUse">
<stop stop-color="#F0B90B"/>
<stop offset="1" stop-color="#F8D33A"/>
</linearGradient>
<linearGradient id="paint11_linear_6893_26200" x1="20.2663" y1="0" x2="20.2663" y2="6.54993" gradientUnits="userSpaceOnUse">
<stop stop-color="#F0B90B"/>
<stop offset="1" stop-color="#F8D33A"/>
</linearGradient>
<linearGradient id="paint12_linear_6893_26200" x1="-22.1714" y1="-35.5892" x2="-3.48314" y2="-43.6729" gradientUnits="userSpaceOnUse">
<stop stop-color="#929AA5"/>
<stop offset="1" stop-color="#76808F" stop-opacity="0"/>
</linearGradient>
<linearGradient id="paint13_linear_6893_26200" x1="-14.4697" y1="4.8331" x2="24.3607" y2="-8.29341" gradientUnits="userSpaceOnUse">
<stop stop-color="#6D7581"/>
<stop offset="1" stop-color="#929AA5" stop-opacity="0"/>
</linearGradient>
<linearGradient id="paint14_linear_6893_26200" x1="-22.1714" y1="-35.5892" x2="-3.48314" y2="-43.6729" gradientUnits="userSpaceOnUse">
<stop stop-color="#929AA5"/>
<stop offset="1" stop-color="#76808F" stop-opacity="0"/>
</linearGradient>
<linearGradient id="paint15_linear_6893_26200" x1="-14.4697" y1="4.8331" x2="24.3607" y2="-8.29341" gradientUnits="userSpaceOnUse">
<stop stop-color="#6D7581"/>
<stop offset="1" stop-color="#929AA5" stop-opacity="0"/>
</linearGradient>
<linearGradient id="paint16_linear_6893_26200" x1="256.713" y1="215.313" x2="275.625" y2="90.2532" gradientUnits="userSpaceOnUse">
<stop stop-color="#F8D33A"/>
<stop offset="0.67079" stop-color="#F0B90B"/>
<stop offset="0.996651" stop-color="#F0B90B"/>
</linearGradient>
<linearGradient id="paint17_linear_6893_26200" x1="216.855" y1="259.456" x2="213.255" y2="79.9428" gradientUnits="userSpaceOnUse">
<stop stop-color="white"/>
<stop offset="1" stop-color="white" stop-opacity="0"/>
</linearGradient>
<linearGradient id="paint18_linear_6893_26200" x1="243.912" y1="108.575" x2="300.319" y2="143.4" gradientUnits="userSpaceOnUse">
<stop stop-color="#F5C928"/>
<stop offset="1" stop-color="#F8D33A"/>
</linearGradient>
<linearGradient id="paint19_linear_6893_26200" x1="243.912" y1="108.575" x2="300.319" y2="143.4" gradientUnits="userSpaceOnUse">
<stop stop-color="#F5C928"/>
<stop offset="1" stop-color="#F8D33A"/>
</linearGradient>
<linearGradient id="paint20_linear_6893_26200" x1="243.912" y1="108.575" x2="300.319" y2="143.4" gradientUnits="userSpaceOnUse">
<stop stop-color="#F5C928"/>
<stop offset="1" stop-color="#F8D33A"/>
</linearGradient>
<linearGradient id="paint21_linear_6893_26200" x1="243.912" y1="108.575" x2="300.319" y2="143.4" gradientUnits="userSpaceOnUse">
<stop stop-color="#F5C928"/>
<stop offset="1" stop-color="#F8D33A"/>
</linearGradient>
<linearGradient id="paint22_linear_6893_26200" x1="243.912" y1="108.575" x2="300.319" y2="143.4" gradientUnits="userSpaceOnUse">
<stop stop-color="#F5C928"/>
<stop offset="1" stop-color="#F8D33A"/>
</linearGradient>
<linearGradient id="paint23_linear_6893_26200" x1="243.912" y1="108.575" x2="300.319" y2="143.4" gradientUnits="userSpaceOnUse">
<stop stop-color="#F5C928"/>
<stop offset="1" stop-color="#F8D33A"/>
</linearGradient>
<linearGradient id="paint24_linear_6893_26200" x1="243.912" y1="108.575" x2="300.319" y2="143.4" gradientUnits="userSpaceOnUse">
<stop stop-color="#F5C928"/>
<stop offset="1" stop-color="#F8D33A"/>
</linearGradient>
<linearGradient id="paint25_linear_6893_26200" x1="243.912" y1="108.575" x2="300.319" y2="143.4" gradientUnits="userSpaceOnUse">
<stop stop-color="#F5C928"/>
<stop offset="1" stop-color="#F8D33A"/>
</linearGradient>
<linearGradient id="paint26_linear_6893_26200" x1="243.912" y1="108.575" x2="300.319" y2="143.4" gradientUnits="userSpaceOnUse">
<stop stop-color="#F5C928"/>
<stop offset="1" stop-color="#F8D33A"/>
</linearGradient>
<linearGradient id="paint27_linear_6893_26200" x1="243.912" y1="108.575" x2="300.319" y2="143.4" gradientUnits="userSpaceOnUse">
<stop stop-color="#F5C928"/>
<stop offset="1" stop-color="#F8D33A"/>
</linearGradient>
<linearGradient id="paint28_linear_6893_26200" x1="243.912" y1="108.575" x2="300.319" y2="143.4" gradientUnits="userSpaceOnUse">
<stop stop-color="#F5C928"/>
<stop offset="1" stop-color="#F8D33A"/>
</linearGradient>
<linearGradient id="paint29_linear_6893_26200" x1="243.912" y1="108.575" x2="300.319" y2="143.4" gradientUnits="userSpaceOnUse">
<stop stop-color="#F5C928"/>
<stop offset="1" stop-color="#F8D33A"/>
</linearGradient>
<linearGradient id="paint30_linear_6893_26200" x1="243.912" y1="108.575" x2="300.319" y2="143.4" gradientUnits="userSpaceOnUse">
<stop stop-color="#F5C928"/>
<stop offset="1" stop-color="#F8D33A"/>
</linearGradient>
<linearGradient id="paint31_linear_6893_26200" x1="243.912" y1="108.575" x2="300.319" y2="143.4" gradientUnits="userSpaceOnUse">
<stop stop-color="#F5C928"/>
<stop offset="1" stop-color="#F8D33A"/>
</linearGradient>
<linearGradient id="paint32_linear_6893_26200" x1="243.912" y1="108.575" x2="300.319" y2="143.4" gradientUnits="userSpaceOnUse">
<stop stop-color="#F5C928"/>
<stop offset="1" stop-color="#F8D33A"/>
</linearGradient>
<linearGradient id="paint33_linear_6893_26200" x1="200.01" y1="55.2789" x2="198.293" y2="100.112" gradientUnits="userSpaceOnUse">
<stop stop-color="#F0B90B"/>
<stop offset="1" stop-color="#F8D33A"/>
</linearGradient>
<linearGradient id="paint34_linear_6893_26200" x1="211.194" y1="21.8489" x2="211.194" y2="118.557" gradientUnits="userSpaceOnUse">
<stop stop-color="#2B2F36"/>
<stop offset="1" stop-color="#474D57"/>
</linearGradient>
<linearGradient id="paint35_linear_6893_26200" x1="200.241" y1="85.6522" x2="218.443" y2="85.6522" gradientUnits="userSpaceOnUse">
<stop stop-color="#F0B90B"/>
<stop offset="1" stop-color="#F8D33A"/>
</linearGradient>
<linearGradient id="paint36_linear_6893_26200" x1="219.201" y1="79.0825" x2="228.302" y2="79.0825" gradientUnits="userSpaceOnUse">
<stop stop-color="#F0B90B"/>
<stop offset="1" stop-color="#F8D33A"/>
</linearGradient>
<linearGradient id="paint37_linear_6893_26200" x1="201" y1="68.5747" x2="210.1" y2="68.5747" gradientUnits="userSpaceOnUse">
<stop stop-color="#F0B90B"/>
<stop offset="1" stop-color="#F8D33A"/>
</linearGradient>
<linearGradient id="paint38_linear_6893_26200" x1="82.3204" y1="180.525" x2="51.273" y2="205.034" gradientUnits="userSpaceOnUse">
<stop offset="0.333333" stop-color="#F0B90B"/>
<stop offset="1" stop-color="#FBDA3C"/>
</linearGradient>
<linearGradient id="paint39_linear_6893_26200" x1="63.9055" y1="159.534" x2="63.7651" y2="185.071" gradientUnits="userSpaceOnUse">
<stop stop-color="#F0B90B"/>
<stop offset="1" stop-color="#F8D33A"/>
</linearGradient>
<linearGradient id="paint40_linear_6893_26200" x1="53.3207" y1="183.111" x2="74.2482" y2="161.466" gradientUnits="userSpaceOnUse">
<stop stop-color="#F0B90B"/>
<stop offset="1" stop-color="#F8D33A"/>
</linearGradient>
<clipPath id="clip0_6893_26200">
<rect width="523" height="296" rx="10" fill="white"/>
</clipPath>
<clipPath id="clip1_6893_26200">
<rect width="56.1857" height="37.2689" fill="white" transform="matrix(0.866025 0.5 -7.53472e-05 -1 413.451 152.272)"/>
</clipPath>
<clipPath id="clip2_6893_26200">
<rect width="94.502" height="60.8356" fill="white" transform="matrix(0.866025 0.5 -7.53041e-05 -1 272.173 64.7598)"/>
</clipPath>
<clipPath id="clip3_6893_26200">
<rect width="82.0419" height="57.3361" fill="white" transform="matrix(-0.866025 0.5 7.53472e-05 -1 110.092 81.7946)"/>
</clipPath>
</defs>
</svg>
