<svg fill="none" xmlns="http://www.w3.org/2000/svg"><defs><symbol viewBox="0 0 121 40" fill="none" id="AppStore"><path d="M18.382 19.4862C18.3508 16.0473 21.1035 14.3748 21.2293 14.296C19.6716 11.9461 17.2548 11.6238 16.4062 11.5986C14.3772 11.3788 12.4097 12.8548 11.3757 12.8548C10.3215 12.8548 8.729 11.6209 7.01438 11.6575C4.80778 11.6926 2.74253 13.0147 1.60986 15.0675C-0.72709 19.2526 1.01553 25.4051 3.25472 28.7875C4.375 30.4447 5.6839 32.2947 7.39623 32.2297C9.07229 32.1575 9.69922 31.1236 11.7222 31.1236C13.7274 31.1236 14.3134 32.2297 16.062 32.1875C17.8602 32.1575 18.9938 30.5226 20.0741 28.8501C21.3683 26.9512 21.8879 25.0813 21.9094 24.9849C21.8672 24.9697 18.4159 23.6087 18.382 19.4862Z" fill="currentColor"/><path d="M14.9982 9.41174C15.8982 8.24534 16.5159 6.65929 16.3443 5.0495C15.0391 5.10931 13.4075 5.98186 12.469 7.1231C11.6374 8.12952 10.8943 9.77681 11.0862 11.3254C12.552 11.4379 14.0565 10.5606 14.9982 9.41174Z" fill="currentColor"/><path d="M34.2608 26.1299H38.7952L36.5592 19.3214H36.4963L34.2608 26.1299ZM39.3881 28.0663H33.6674L32.2947 32.2624H29.8719L35.2893 16.7399H37.8066L43.2254 32.2624H40.7613L39.3881 28.0663Z" fill="currentColor"/><path d="M52.7851 26.6115C52.7851 24.3205 51.6409 22.8142 49.8947 22.8142C48.1787 22.8142 47.0244 24.3528 47.0244 26.6115C47.0244 28.8916 48.1787 30.4188 49.8947 30.4188C51.6409 30.4188 52.7851 28.9239 52.7851 26.6115ZM55.0931 26.6115C55.0931 30.1292 53.2734 32.3879 50.5275 32.3879C48.969 32.3879 47.7303 31.6664 47.085 30.4079H47.0331V36.0139H44.7875V20.9528H46.9615V22.8351H47.0028C47.6275 21.6202 48.9579 20.8341 50.4867 20.8341C53.2638 20.8341 55.0931 23.1052 55.0931 26.6115Z" fill="currentColor"/><path d="M64.7179 26.6115C64.7179 24.3205 63.5733 22.8142 61.8261 22.8142C60.1101 22.8142 58.9559 24.3528 58.9559 26.6115C58.9559 28.8916 60.1101 30.4188 61.8261 30.4188C63.5733 30.4188 64.7179 28.9239 64.7179 26.6115ZM67.0259 26.6115C67.0259 30.1292 65.2062 32.3879 62.4604 32.3879C60.9018 32.3879 59.6631 31.6664 59.0178 30.4079H58.9655V36.0139H56.7203V20.9528H58.8944V22.8351H58.9357C59.5589 21.6202 60.8908 20.8341 62.4195 20.8341C65.1952 20.8341 67.0259 23.1052 67.0259 26.6115Z" fill="currentColor"/><path d="M75.0816 27.8995C75.2482 29.4381 76.6934 30.4492 78.6696 30.4492C80.5618 30.4492 81.9235 29.4381 81.9235 28.0504C81.9235 26.8456 81.102 26.1245 79.1575 25.6293L77.2134 25.1442C74.457 24.4568 73.1783 23.1228 73.1783 20.9604C73.1783 18.2815 75.4345 16.4429 78.6379 16.4429C81.8088 16.4429 83.9828 18.2815 84.0567 20.9604H81.7895C81.6532 19.4119 80.4155 18.4757 78.6068 18.4757C76.7976 18.4757 75.5603 19.4218 75.5603 20.799C75.5603 21.8966 76.3506 22.5417 78.2841 23.0369L79.9381 23.4565C83.0163 24.2094 84.2958 25.4893 84.2958 27.7594C84.2958 30.6629 82.0589 32.4829 78.5026 32.4829C75.1747 32.4829 72.9282 30.7065 72.7832 27.8995H75.0816Z" fill="currentColor"/><path d="M89.0225 18.2825V20.9614H91.1019V22.8014H89.0225V29.0403C89.0225 30.0087 89.4378 30.4602 90.3529 30.4602C90.5824 30.4602 90.9473 30.4274 91.0923 30.4066V32.2352C90.8436 32.3002 90.3442 32.3425 89.844 32.3425C87.6291 32.3425 86.7663 31.4828 86.7663 29.2876V22.8014H85.1747V20.9614H86.7663V18.2825H89.0225Z" fill="currentColor"/><path d="M100.379 26.5722C100.379 24.1298 99.296 22.6885 97.4762 22.6885C95.6574 22.6885 94.5762 24.1412 94.5762 26.5722C94.5762 29.0247 95.6574 30.456 97.4762 30.456C99.296 30.456 100.379 29.0247 100.379 26.5722ZM92.2883 26.5722C92.2883 23.0123 94.315 20.7749 97.4762 20.7749C100.648 20.7749 102.666 23.0123 102.666 26.5722C102.666 30.1436 100.659 32.371 97.4762 32.371C94.2958 32.371 92.2883 30.1436 92.2883 26.5722Z" fill="currentColor"/><path d="M104.68 20.9528H106.821V22.8792H106.873C107.216 21.5979 108.215 20.8341 109.505 20.8341C109.828 20.8341 110.097 20.8778 110.275 20.92V23.0938C110.097 23.0178 109.702 22.9528 109.266 22.9528C107.819 22.9528 106.925 23.9654 106.925 25.5567V32.2702H104.68V20.9528Z" fill="currentColor"/><path d="M112.924 25.5283H118.394C118.341 23.7961 117.271 22.6558 115.711 22.6558C114.162 22.6558 113.039 23.8184 112.924 25.5283ZM120.515 28.906C120.213 30.9611 118.28 32.371 115.805 32.371C112.622 32.371 110.646 30.165 110.646 26.6259C110.646 23.0759 112.633 20.7749 115.711 20.7749C118.738 20.7749 120.641 22.9249 120.641 26.3558V27.1524H112.913V27.2924C112.913 29.2283 114.089 30.4987 115.857 30.4987C117.104 30.4987 118.083 29.8858 118.384 28.906H120.515Z" fill="currentColor"/><path d="M32.5981 11.4534H33.9575C35.4656 11.4534 36.3357 10.4821 36.3357 8.77117C36.3357 7.0859 35.4523 6.10465 33.9575 6.10465H32.5981V11.4534ZM34.0833 5.0498C36.221 5.0498 37.4753 6.4099 37.4753 8.75599C37.4753 11.1396 36.2307 12.5087 34.0833 12.5087H31.4778V5.0498H34.0833Z" fill="currentColor"/><path d="M42.6204 9.69167C42.6204 8.47162 42.0912 7.75811 41.1605 7.75811C40.2274 7.75811 39.7019 8.47162 39.7019 9.69167C39.7019 10.9217 40.2274 11.6295 41.1605 11.6295C42.0912 11.6295 42.6204 10.9169 42.6204 9.69167ZM38.5927 9.69167C38.5927 7.87679 39.5725 6.77069 41.1605 6.77069C42.7461 6.77069 43.7246 7.87679 43.7246 9.69167C43.7246 11.5156 42.7507 12.6169 41.1605 12.6169C39.5679 12.6169 38.5927 11.5156 38.5927 9.69167Z" fill="currentColor"/><path d="M50.6055 12.5182H49.4912L48.3664 8.37292H48.2819L47.1616 12.5182H46.0583L44.5585 6.8894H45.6471L46.6224 11.1842H46.7022L47.8211 6.8894H48.8519L49.9699 11.1842H50.0557L51.025 6.8894H52.0994L50.6055 12.5182Z" fill="currentColor"/><path d="M53.5071 6.87941H54.5415V7.77426H54.6214C54.8862 7.14809 55.4264 6.77069 56.2456 6.77069C57.4599 6.77069 58.1282 7.52551 58.1282 8.86424V12.5082H57.0552V9.1429C57.0552 8.2395 56.6747 7.78945 55.8807 7.78945C55.0867 7.78945 54.5814 8.33681 54.5814 9.21553V12.5082H53.5071V6.87941Z" fill="currentColor"/><path d="M60.7775 4.69336H59.7031V12.5183H60.7775V4.69336Z" fill="currentColor"/><path d="M66.2558 9.69167C66.2558 8.47162 65.7266 7.75811 64.7959 7.75811C63.8629 7.75811 63.3374 8.47162 63.3374 9.69167C63.3374 10.9217 63.8629 11.6295 64.7959 11.6295C65.7266 11.6295 66.2558 10.9169 66.2558 9.69167ZM62.2281 9.69167C62.2281 7.87679 63.2079 6.77069 64.7959 6.77069C66.3815 6.77069 67.3614 7.87679 67.3614 9.69167C67.3614 11.5156 66.3861 12.6169 64.7959 12.6169C63.2034 12.6169 62.2281 11.5156 62.2281 9.69167Z" fill="currentColor"/><path d="M72.1511 10.4356V9.9656L70.8216 10.0529C70.0726 10.1042 69.7329 10.3682 69.7329 10.8642C69.7329 11.3717 70.1584 11.6656 70.7422 11.6656C71.5517 11.6656 72.1511 11.1329 72.1511 10.4356ZM68.6526 10.9169C68.6526 9.90293 69.3823 9.3195 70.6765 9.23689L72.1511 9.14811V8.66294C72.1511 8.06811 71.7716 7.73201 71.0368 7.73201C70.4374 7.73201 70.0216 7.96035 69.9032 8.35817H68.8628C68.9729 7.39068 69.8527 6.77069 71.0864 6.77069C72.4508 6.77069 73.2205 7.47281 73.2205 8.66294V12.5082H72.186V11.7169H72.1016C71.7766 12.2804 71.1818 12.6003 70.4663 12.6003C69.4176 12.6003 68.6526 11.9457 68.6526 10.9169Z" fill="currentColor"/><path d="M75.7286 9.70218C75.7286 10.8961 76.2724 11.6149 77.182 11.6149C78.0875 11.6149 78.647 10.8862 78.647 9.70741C78.647 8.53342 78.0811 7.79475 77.182 7.79475C76.2784 7.79475 75.7286 8.51869 75.7286 9.70218ZM74.6193 9.70218C74.6193 7.92339 75.5023 6.79734 76.8778 6.79734C77.6222 6.79734 78.2518 7.16335 78.5465 7.78477H78.6263V4.69336H79.7007V12.5187H78.6709V11.6296H78.5864C78.2615 12.2448 77.6268 12.6108 76.8778 12.6108C75.4927 12.6108 74.6193 11.4848 74.6193 9.70218Z" fill="currentColor"/><path d="M88.0557 9.69167C88.0557 8.47162 87.5252 7.75811 86.5958 7.75811C85.6619 7.75811 85.1373 8.47162 85.1373 9.69167C85.1373 10.9217 85.6619 11.6295 86.5958 11.6295C87.5252 11.6295 88.0557 10.9169 88.0557 9.69167ZM84.028 9.69167C84.028 7.87679 85.0069 6.77069 86.5958 6.77069C88.1801 6.77069 89.1604 7.87679 89.1604 9.69167C89.1604 11.5156 88.1851 12.6169 86.5958 12.6169C85.0019 12.6169 84.028 11.5156 84.028 9.69167Z" fill="currentColor"/><path d="M90.6821 6.87941H91.7156V7.77426H91.7964C92.0612 7.14809 92.6014 6.77069 93.4206 6.77069C94.635 6.77069 95.3032 7.52551 95.3032 8.86424V12.5082H94.2302V9.1429C94.2302 8.2395 93.8498 7.78945 93.0558 7.78945C92.2618 7.78945 91.7565 8.33681 91.7565 9.21553V12.5082H90.6821V6.87941Z" fill="currentColor"/><path d="M101.342 5.46515V6.89264H102.52V7.82785H101.342V10.7227C101.342 11.3114 101.576 11.5701 102.11 11.5701C102.276 11.5701 102.37 11.5601 102.52 11.544V12.4702C102.346 12.5001 102.145 12.5262 101.936 12.5262C100.742 12.5262 100.266 12.0914 100.266 11.0066V7.82785H99.4023V6.89264H100.266V5.46515H101.342Z" fill="currentColor"/><path d="M103.992 4.69336H105.056V7.79475H105.141C105.405 7.16336 105.981 6.78596 106.8 6.78596C107.959 6.78596 108.674 7.54599 108.674 8.88471V12.5187H107.6V9.15863C107.6 8.25997 107.195 7.80472 106.436 7.80472C105.555 7.80472 105.065 8.37866 105.065 9.23127V12.5187H103.992V4.69336Z" fill="currentColor"/><path d="M111.051 9.17422H113.8C113.775 8.29076 113.255 7.71682 112.46 7.71682C111.666 7.71682 111.111 8.2955 111.051 9.17422ZM114.829 10.9882C114.585 11.9969 113.715 12.6169 112.471 12.6169C110.912 12.6169 109.958 11.5104 109.958 9.71162C109.958 7.91288 110.932 6.77069 112.466 6.77069C113.98 6.77069 114.894 7.84072 114.894 9.60812V9.9955H111.051V10.0582C111.087 11.0456 111.642 11.6703 112.5 11.6703C113.151 11.6703 113.596 11.4282 113.795 10.9882H114.829Z" fill="currentColor"/></symbol></defs><defs><symbol viewBox="0 0 67 20" fill="none" id="BitcoinLogo"><path d="M10.7127 0C5.26798 0 0.853516 4.47532 0.853516 9.99873C0.853516 15.5205 5.26798 20 10.7127 20C16.1573 20 20.5743 15.5205 20.5743 9.99873C20.5743 4.47524 16.1573 0 10.7127 0ZM24.5043 0.716049L23.0188 8.24848C22.9293 8.68916 22.8543 9.1461 22.8543 9.60354C22.8543 10.9256 23.7237 11.6875 25.4634 11.6875C28.7653 11.6875 30.3246 8.91936 30.3246 6.50077C30.3246 5.17544 29.636 3.90874 28.1053 3.90874C27.2064 3.90874 26.3819 4.30508 25.8429 4.96093H25.8101L26.6806 0.716049H24.5043ZM33.8548 0.841782C33.1931 0.841782 32.623 1.34053 32.6098 2.08392C32.6081 2.73986 33.0587 3.15155 33.6575 3.15155C34.349 3.15155 34.9329 2.69502 34.9329 1.91967C34.9329 1.26538 34.4817 0.841782 33.8548 0.841782ZM57.751 0.841782C57.0944 0.841782 56.5193 1.34053 56.506 2.08392C56.5044 2.73986 56.9575 3.15155 57.5562 3.15155C58.2462 3.15155 58.8316 2.69502 58.8316 1.91967C58.8316 1.26538 58.383 0.841782 57.751 0.841782ZM39.045 1.99671L36.8434 2.51253L36.5422 4.078H35.5984L35.2997 5.73849H36.2285L35.6566 8.70526C35.5521 9.26699 35.5072 9.67819 35.5072 10.0886C35.5072 11.0187 36.1259 11.6875 37.4127 11.6875C37.8755 11.6875 38.4145 11.6257 38.6881 11.5181L38.9412 9.79867C38.7438 9.82889 38.5346 9.82947 38.3439 9.82947C37.8763 9.82947 37.724 9.57414 37.724 9.20581C37.724 8.95016 37.7874 8.56918 37.8454 8.26137L38.3439 5.73857H39.9003L40.2141 4.07808H38.6552L39.045 1.99671ZM9.86741 3.90611L11.3073 4.18329L11.0441 5.59994L11.9703 5.77701L12.2335 4.3578L13.6734 4.6298L13.3925 6.14912C13.5981 6.23149 13.7864 6.31599 13.9341 6.41857C14.3204 6.67931 14.6025 6.9904 14.7717 7.36046C14.9392 7.73043 14.9829 8.11232 14.9084 8.50249C14.8569 8.785 14.7469 9.0455 14.5795 9.28268C14.4135 9.51312 14.1978 9.70702 13.9342 9.8601C13.6721 10.0115 13.3428 10.1168 12.9498 10.1757C13.3262 10.3523 13.6127 10.5242 13.8001 10.689C14.072 10.9211 14.2695 11.2083 14.3922 11.5564C14.5131 11.8995 14.5377 12.262 14.4681 12.6471C14.3835 13.1063 14.1695 13.5022 13.8279 13.8302C13.4846 14.1683 13.0434 14.3906 12.5095 14.4949C12.3121 14.5302 12.0885 14.5531 11.8414 14.5565L11.5555 16.0938L10.1156 15.8244L10.3788 14.4026C10.3423 14.3909 10.309 14.3888 10.2725 14.3821L9.45012 14.2281L9.18945 15.6473L7.74957 15.3753L8.01024 13.9535L5.8137 13.5352L6.03388 12.3418L6.37043 12.406C6.59433 12.4514 6.74811 12.462 6.83605 12.4316C6.92391 12.408 6.98692 12.362 7.03348 12.2981C7.08158 12.2325 7.12782 12.0723 7.17268 11.8234L8.05842 7.01397C8.10653 6.76169 8.12126 6.59349 8.10142 6.51613C8.0815 6.43877 8.03518 6.37069 7.96222 6.31854C7.89258 6.25965 7.74326 6.20751 7.51935 6.17227L7.1828 6.10296L7.40298 4.9096L9.60204 5.33049L9.86741 3.90611ZM45.0652 3.90858C42.2708 3.90858 40.28 5.97838 40.28 8.63077C40.28 10.56 41.5555 11.6746 43.3697 11.6746C44.2388 11.6746 44.9906 11.5185 45.4549 11.2947L45.4397 9.61373C45.0648 9.76845 44.6131 9.91915 43.9846 9.91915C43.1753 9.91915 42.5472 9.40036 42.5472 8.38439C42.5472 6.98334 43.4891 5.66146 45.0348 5.66146C45.4692 5.66146 45.7681 5.73849 46.0268 5.84115L46.5506 4.17039C46.2372 4.03242 45.6937 3.90858 45.0652 3.90858ZM51.0551 3.90858C48.4448 3.90858 46.6746 6.02601 46.6746 8.61279C46.6746 10.4579 47.9188 11.6874 49.7797 11.6874C52.3321 11.6874 54.1601 9.68903 54.1601 6.96774C54.1601 5.27744 53.022 3.90858 51.0551 3.90858ZM64.4925 3.90858C63.5174 3.90858 62.6046 4.33514 61.9113 5.30725H61.8809L62.0303 4.07792H60.112C60.0175 4.73722 59.899 5.55617 59.7198 6.49806L58.7885 11.5129H60.9471L61.5645 8.21497C61.8632 6.57173 62.6919 5.67164 63.3967 5.67164C63.9375 5.67164 64.1179 6.03981 64.1179 6.55448C64.1179 6.82698 64.086 7.13297 64.0445 7.39372L63.2777 11.5129H65.4389L66.2487 7.19358C66.3101 6.82862 66.3677 6.26483 66.3677 5.93345C66.3677 4.65189 65.6916 3.90858 64.4925 3.90858ZM32.3112 4.07537L30.9168 11.518H33.0754L34.4698 4.07537H32.3112ZM56.2023 4.07537L54.8079 11.518H56.9691L58.3634 4.07537H56.2023ZM50.7691 5.56907C51.6398 5.56907 51.9256 6.29866 51.9256 6.98318C51.9256 8.25973 51.2692 10.0142 50.0833 10.0142C49.3321 10.0142 48.9091 9.43379 48.9091 8.56926C48.8959 7.41203 49.5254 5.56907 50.7691 5.56907ZM27.0982 5.67681C27.7565 5.67681 28.0547 6.23838 28.0547 6.95484C28.0547 8.26006 27.1568 10.0269 25.9113 10.0269C25.4138 10.0269 25.1013 9.73708 25.0863 9.20565C25.0714 8.88946 25.1298 8.63176 25.1596 8.38949L25.2963 7.77609C25.5534 6.48106 26.317 5.67681 27.0982 5.67681ZM10.2572 6.88816L9.87 8.99007L10.8038 9.16976C11.2896 9.26059 11.6591 9.28547 11.9096 9.24679C12.1583 9.21148 12.3533 9.11941 12.5043 8.97479C12.6485 8.83354 12.7479 8.64851 12.7877 8.42817C12.8308 8.20109 12.8115 7.99898 12.727 7.81732C12.6474 7.63903 12.5067 7.49712 12.3044 7.38107C12.107 7.27513 11.7382 7.16804 11.1909 7.06538L10.2572 6.88816ZM9.63718 10.2656L9.29554 12.1314C9.25399 12.3921 9.23237 12.5547 9.23731 12.5986C9.24719 12.6608 9.27424 12.7085 9.31578 12.7372C9.36056 12.7674 9.48292 12.8072 9.69031 12.8424L10.3103 12.963C10.6734 13.0287 10.9784 13.0534 11.2289 13.0297C11.4793 13.0061 11.7073 12.9025 11.9147 12.7192C12.1187 12.5341 12.2489 12.2956 12.307 11.9929C12.35 11.7389 12.3333 11.513 12.2487 11.3128C12.1608 11.1143 12.0121 10.9444 11.7932 10.8098C11.5743 10.6752 11.2247 10.566 10.7405 10.4736L9.63718 10.2656ZM49.5722 12.6652V14.5952H49.557C49.3961 14.3478 49.0593 14.1923 48.6282 14.1923C47.7857 14.1923 47.045 14.8829 47.0516 16.0889C47.0516 17.1956 47.7214 17.9213 48.5574 17.9213C49.0084 17.9213 49.4327 17.7159 49.6582 17.3156H49.6734L49.7215 17.8417H50.6933C50.6767 17.5995 50.6629 17.1769 50.6629 16.7766V12.6652H49.5722ZM52.9986 12.6652V17.8417H54.0943V15.7244C54.0943 15.642 54.1016 15.5486 54.1297 15.478C54.2093 15.2829 54.3903 15.093 54.6789 15.093C55.0885 15.093 55.2457 15.4116 55.2457 15.8809V17.8417H56.3389V15.7577C56.3389 14.6847 55.8089 14.1948 55.109 14.1948C54.9083 14.1948 54.7005 14.2443 54.5397 14.3335C54.3672 14.4276 54.2246 14.5465 54.1069 14.6979H54.0943V12.6653H52.9986V12.6652ZM42.0715 13.2555L40.9986 13.4993V14.2744H40.5329V15.0906H40.9986V16.5457C40.9986 17.052 41.0991 17.3946 41.2997 17.6083C41.4723 17.7865 41.7673 17.9162 42.1222 17.9162C42.4307 17.9162 42.6907 17.8792 42.8332 17.8187L42.8256 16.9794C42.7476 16.9929 42.6403 17.0077 42.5042 17.0077C42.1742 17.0077 42.0715 16.812 42.0715 16.3815V15.0906H42.8585V14.2744H42.0715V13.2555H42.0715ZM23.9932 14.1922C23.353 14.1922 22.8704 14.3683 22.6266 14.5079L22.8266 15.2239C23.0571 15.0759 23.4401 14.9545 23.7983 14.9545C24.3389 14.9545 24.4385 15.223 24.4385 15.4113V15.4651C23.1947 15.455 22.3736 15.902 22.3736 16.8305C22.3736 17.3989 22.7967 17.9212 23.5098 17.9212C23.926 17.9212 24.2864 17.7665 24.517 17.4823H24.5397L24.603 17.8416H25.59C25.5551 17.6448 25.5419 17.3155 25.5419 16.969V15.732C25.5419 14.8927 25.1656 14.1922 23.9932 14.1922ZM28.2191 14.1922C26.9089 14.1922 26.2048 15.046 26.2048 16.0888C26.2048 17.2106 26.9313 17.9135 28.0673 17.9135C28.4852 17.9135 28.8526 17.8393 29.0467 17.7518L28.915 16.9357C28.7492 17.0013 28.5488 17.0409 28.29 17.0409C27.7577 17.0409 27.3258 16.7002 27.3258 16.0426C27.3176 15.4623 27.6951 15.0468 28.2672 15.0468C28.5557 15.0468 28.7503 15.0931 28.8796 15.152L29.0516 14.3307C28.8228 14.2399 28.5061 14.1922 28.2191 14.1922ZM31.3849 14.1922C30.0747 14.1922 29.3705 15.046 29.3705 16.0888C29.3705 17.2106 30.0979 17.9135 31.2356 17.9135C31.6519 17.9135 32.0209 17.8393 32.2149 17.7518L32.0858 16.9357C31.92 17.0013 31.7187 17.0409 31.4582 17.0409C30.9276 17.0409 30.4941 16.7002 30.4941 16.0426C30.4859 15.4623 30.8617 15.0468 31.4355 15.0468C31.7225 15.0468 31.9161 15.0931 32.0453 15.152L32.2199 14.3307C31.9895 14.2399 31.6736 14.1922 31.3849 14.1922ZM34.3178 14.1922C33.0939 14.1922 32.5413 15.1907 32.5413 16.0939C32.5413 17.209 33.2267 17.9135 34.4191 17.9135C34.8951 17.9135 35.3321 17.8381 35.692 17.6902L35.5503 16.9408C35.2551 17.0383 34.9517 17.087 34.5785 17.087C34.0677 17.087 33.6214 16.8712 33.5865 16.412H35.8489C35.8655 16.3296 35.887 16.1657 35.887 15.9706C35.8869 15.0945 35.4523 14.1922 34.3178 14.1922ZM38.7008 14.1922C38.1917 14.1922 37.7853 14.3878 37.5266 14.7696H37.5141L37.466 14.2743H36.5145C36.5277 14.5989 36.5448 15.0027 36.5448 15.4702V19.284H37.638V17.5132H37.6507C37.8115 17.7469 38.1396 17.9213 38.5642 17.9213C39.3486 17.9213 40.161 17.3093 40.161 16.0093C40.161 14.8706 39.4704 14.1922 38.7008 14.1922ZM45.0298 14.1922C43.8093 14.1922 43.2533 15.1907 43.2533 16.0939C43.2533 17.209 43.9386 17.9135 45.131 17.9135C45.6071 17.9135 46.044 17.8381 46.4039 17.6902L46.2598 16.9408C45.9645 17.0383 45.6637 17.087 45.2905 17.087C44.778 17.087 44.335 16.8712 44.2985 16.412H46.5609C46.5741 16.3296 46.5964 16.1657 46.5964 15.9706C46.5963 15.0945 46.1658 14.1922 45.0298 14.1922ZM58.7961 14.1922C57.5723 14.1922 57.0196 15.1907 57.0196 16.0939C57.0196 17.209 57.7033 17.9135 58.8974 17.9135C59.3734 17.9135 59.8113 17.8381 60.1728 17.6902L60.026 16.9408C59.7325 17.0383 59.43 17.087 59.0568 17.087C58.5444 17.087 58.0988 16.8712 58.0623 16.412H60.3272C60.3405 16.3296 60.3627 16.1657 60.3627 15.9706C60.3626 15.0945 59.9306 14.1922 58.7961 14.1922ZM65.2744 14.1922C64.0539 14.1922 63.4979 15.1907 63.4979 16.0939C63.4979 17.209 64.1832 17.9135 65.3756 17.9135C65.8517 17.9135 66.2913 17.8381 66.6511 17.6902L66.5068 16.9408C66.2117 17.0383 65.9099 17.087 65.5351 17.087C65.0244 17.087 64.5796 16.8712 64.5431 16.412H66.8055C66.8221 16.3296 66.8435 16.1657 66.8435 15.9706C66.8434 15.0945 66.4105 14.1922 65.2744 14.1922ZM62.9488 14.1972C62.6123 14.1972 62.1815 14.4158 62.0023 14.9338H61.9694L61.934 14.2742H60.9951C61.0084 14.5805 61.0204 14.9266 61.0204 15.4496V17.8415H62.1136V16.0322C62.1136 15.9448 62.1214 15.8582 62.1363 15.7858C62.2077 15.4412 62.4816 15.2238 62.8829 15.2238C63.0056 15.2238 63.1019 15.2411 63.1815 15.2546V14.21C63.1037 14.1949 63.0517 14.1973 62.9488 14.1972ZM34.2521 14.9286C34.7529 14.9286 34.8721 15.3816 34.8721 15.6523H33.5764C33.6046 15.3497 33.791 14.9286 34.2521 14.9286ZM44.964 14.9286C45.4699 14.9286 45.5866 15.3816 45.5866 15.6523H44.2884C44.3199 15.3497 44.5047 14.9286 44.964 14.9286ZM58.7304 14.9286C59.2346 14.9286 59.3504 15.3816 59.3504 15.6523H58.0547C58.083 15.3497 58.2711 14.9286 58.7304 14.9286ZM65.2087 14.9286C65.7112 14.9286 65.8286 15.3816 65.8286 15.6523H64.533C64.5629 15.3497 64.746 14.9286 65.2087 14.9286ZM48.9167 15.0364C49.2535 15.0364 49.4923 15.2838 49.557 15.5831C49.5636 15.6386 49.5723 15.7192 49.5723 15.7781V16.2503C49.5723 16.3463 49.566 16.4254 49.5444 16.5044C49.4797 16.819 49.2276 17.0357 48.9092 17.0357C48.4582 17.0357 48.1602 16.6549 48.1602 16.0527C48.1602 15.491 48.4176 15.0364 48.9168 15.0364H48.9167ZM38.3137 15.0621C38.8045 15.0621 39.0526 15.4919 39.0526 16.0604C39.0526 16.6643 38.7712 17.0715 38.2985 17.0715C37.9818 17.0715 37.7296 16.8431 37.6583 16.5454C37.6451 16.4765 37.638 16.4001 37.638 16.3093V15.8191C37.638 15.7553 37.645 15.6821 37.6583 15.6215C37.7296 15.2953 38.0036 15.0621 38.3137 15.0621ZM24.4739 16.1554L24.4764 16.5429C24.4764 16.6086 24.4685 16.6757 24.4536 16.7328C24.3823 16.9616 24.1579 17.1384 23.8842 17.1384C23.6404 17.1384 23.4541 17.0017 23.4541 16.7175C23.4541 16.2835 23.9 16.1454 24.4739 16.1554Z" fill="#57697A"/></symbol></defs><defs><symbol viewBox="0 0 25 24" fill="none" id="Discord"><path d="M21.2273 5.45428C21.2273 5.45428 18.7258 3.4961 15.7727 3.27246L15.5065 3.80537C18.176 4.45937 19.4011 5.39428 20.6818 6.54519C18.4744 5.41828 16.2964 4.36337 12.5 4.36337C8.70364 4.36337 6.52564 5.41828 4.31818 6.54519C5.59891 5.39428 7.05636 4.35464 9.49345 3.80537L9.22727 3.27246C6.12909 3.56428 3.77273 5.45428 3.77273 5.45428C3.77273 5.45428 0.979455 9.50482 0.5 17.4543C3.31455 20.7014 7.59091 20.727 7.59091 20.727L8.48545 19.5357C6.96691 19.0077 5.25418 18.0657 3.77273 16.3634C5.53891 17.6997 8.20455 19.0906 12.5 19.0906C16.7955 19.0906 19.4611 17.6997 21.2273 16.3634C19.7464 18.0657 18.0336 19.0077 16.5145 19.5357L17.4091 20.727C17.4091 20.727 21.6855 20.7014 24.5 17.4543C24.0205 9.50482 21.2273 5.45428 21.2273 5.45428ZM8.95455 15.2725C7.89964 15.2725 7.04545 14.2961 7.04545 13.0906C7.04545 11.8852 7.89964 10.9088 8.95455 10.9088C10.0095 10.9088 10.8636 11.8852 10.8636 13.0906C10.8636 14.2961 10.0095 15.2725 8.95455 15.2725ZM16.0455 15.2725C14.9905 15.2725 14.1364 14.2961 14.1364 13.0906C14.1364 11.8852 14.9905 10.9088 16.0455 10.9088C17.1004 10.9088 17.9545 11.8852 17.9545 13.0906C17.9545 14.2961 17.1004 15.2725 16.0455 15.2725Z" fill="currentColor"/></symbol></defs><defs><symbol viewBox="0 0 25 24" fill="none" id="Facebook"><path d="M12.5 0C5.87273 0 0.5 5.40034 0.5 12.0617C0.5 18.109 4.93182 23.102 10.7065 23.9742V15.2586H7.73764V12.088H10.7065V9.9783C10.7065 6.48535 12.3996 4.95187 15.2878 4.95187C16.6711 4.95187 17.4025 5.05494 17.7489 5.10209V7.8697H15.7787C14.5525 7.8697 14.1244 9.03803 14.1244 10.355V12.088H17.7178L17.2302 15.2586H14.1244V24C19.9815 23.2012 24.5 18.1676 24.5 12.0617C24.5 5.40034 19.1273 0 12.5 0Z" fill="currentColor"/></symbol></defs><defs><symbol viewBox="0 0 141 34" fill="none" id="GooglePlay"><path d="M42.9953 4.71631C43.0325 4.91668 43.0499 5.11094 43.0499 5.29864C43.0508 6.35568 42.733 7.22057 42.0927 7.8591C41.3721 8.61505 40.4205 8.99491 39.2755 8.9935C38.1752 8.99491 37.2243 8.60918 36.4544 7.84571C35.6816 7.08178 35.292 6.12265 35.2934 4.99693C35.292 3.87121 35.6816 2.91206 36.4544 2.15001C37.2243 1.38607 38.1738 0.999423 39.2755 1.00036C39.8226 1.00036 40.35 1.10782 40.8487 1.32179C41.3465 1.53577 41.7512 1.82247 42.0558 2.18426L42.1286 2.27107L41.3004 3.09882L41.2139 2.99512C40.7434 2.43765 40.1122 2.1608 39.2755 2.15986C38.5216 2.1608 37.8842 2.41936 37.3333 2.9482C36.7871 3.4747 36.5164 4.14666 36.515 4.99693C36.5164 5.84861 36.7871 6.52057 37.3333 7.04706C37.8842 7.57637 38.5216 7.83446 39.2755 7.83586C40.0774 7.83446 40.7298 7.57262 41.2624 7.04331C41.572 6.73334 41.7646 6.30858 41.8346 5.75335H39.1514V4.61542H42.978L42.9953 4.71631Z" fill="currentColor"/><path d="M48.8074 1.11792V2.27742H45.4255V4.38059H48.4756V5.51851H45.4255V7.62214H48.8074V8.77978H44.2236V1.11792H48.8074Z" fill="currentColor"/><path d="M54.9805 2.27742H52.9057V8.77978H51.7039V2.27742H49.6291V1.11792H54.9805V2.27742Z" fill="currentColor"/><path d="M59.5256 8.77978H58.3246V1.11792H59.5256V8.77978Z" fill="currentColor"/><path d="M65.7909 2.27742H63.7166V8.77978H62.5133V2.27742H60.44V1.11792H65.7909V2.27742Z" fill="currentColor"/><path fill-rule="evenodd" clip-rule="evenodd" d="M75.4183 7.83304C76.1685 7.06348 76.5483 6.10951 76.5473 4.99693C76.5483 3.89232 76.1671 2.94069 75.4131 2.1669C74.6583 1.39218 73.7135 0.999423 72.6056 1.00036C71.4917 0.999423 70.5436 1.38983 69.7944 2.16221C69.0418 2.93224 68.6644 3.88622 68.6658 4.99693C68.6644 6.10951 69.0418 7.06348 69.7944 7.83304C70.5436 8.60542 71.4917 8.99491 72.6056 8.9935C73.7196 8.99491 74.6667 8.60542 75.4183 7.83304ZM69.8874 4.99693C69.8888 5.835 70.1511 6.50602 70.6761 7.03861C71.2059 7.57261 71.8381 7.83446 72.6056 7.83586C73.3718 7.83446 74.0059 7.57261 74.5342 7.03861C75.0616 6.50602 75.3243 5.835 75.3252 4.99693C75.3243 4.16026 75.0616 3.48923 74.5342 2.95664C74.0059 2.42404 73.3718 2.1608 72.6056 2.15986C71.8381 2.1608 71.2059 2.4231 70.6761 2.95664C70.1511 3.49017 69.8888 4.16026 69.8874 4.99693Z" fill="currentColor"/><path d="M77.8312 8.77978H79.0321V4.03709L79.0023 2.99401L82.6171 8.77978H83.8053V1.11792H82.602L82.602 5.57514L82.602 5.58279L82.6319 6.62665L79.1858 1.11792H77.8312V8.77978Z" fill="currentColor"/><path d="M116.628 28.4272H118.938V12.9773H116.628V28.4272Z" fill="currentColor"/><path d="M134.785 25.2401L137.433 18.5421H140.001L133.651 33.1113H131.241L133.59 27.9045L129.47 18.5421H131.958L134.706 25.2401H134.785Z" fill="currentColor"/><path fill-rule="evenodd" clip-rule="evenodd" d="M124.612 18.2052C122.94 18.2052 121.208 18.94 120.491 20.5702L122.541 21.4256C122.979 20.5702 123.795 20.2924 124.652 20.2924C125.847 20.2924 127.061 21.0075 127.08 22.2792V22.4387C126.662 22.2003 125.767 21.8418 124.671 21.8418C122.462 21.8418 120.212 23.0544 120.212 25.3208C120.212 27.3869 122.024 28.7191 124.054 28.7191C125.607 28.7191 126.463 28.0232 127.001 27.2091H127.08V28.4014H129.31V22.4781C129.31 19.7349 127.26 18.2052 124.612 18.2052ZM124.334 26.6713C123.576 26.6713 122.522 26.2945 122.522 25.3603C122.522 24.1679 123.836 23.7104 124.97 23.7104C125.986 23.7104 126.463 23.929 127.08 24.227C126.901 25.6582 125.667 26.6713 124.334 26.6713Z" fill="currentColor"/><path fill-rule="evenodd" clip-rule="evenodd" d="M104.743 12.9773H110.278C112.837 12.9773 115.354 14.8275 115.354 17.7763C115.354 20.7236 112.837 22.5734 110.278 22.5734H107.052V28.4272H104.743V12.9773ZM107.052 20.4233H110.337C112.064 20.4233 113.044 18.9738 113.044 17.7763C113.044 16.5553 112.064 15.1279 110.337 15.1279H107.052V20.4233Z" fill="currentColor"/><path fill-rule="evenodd" clip-rule="evenodd" d="M82.7485 19.4088H82.6691C82.1506 18.7908 81.1528 18.2333 79.8964 18.2333C77.2646 18.2333 74.851 20.543 74.851 23.5091C74.851 26.4564 77.2646 28.7449 79.8964 28.7449C81.1528 28.7449 82.1506 28.1879 82.6691 27.5512H82.7485V28.3076C82.7485 30.3183 81.6717 31.3934 79.9358 31.3934C78.521 31.3934 77.6435 30.3774 77.2844 29.5225L75.2707 30.3577C75.8484 31.7519 77.3835 33.4646 79.9358 33.4646C82.6493 33.4646 84.9422 31.8715 84.9422 27.989V18.5524H82.7485V19.4088ZM80.0956 26.6751C78.5013 26.6751 77.1645 25.3405 77.1645 23.5091C77.1645 21.6579 78.5013 20.3046 80.0956 20.3046C81.6716 20.3046 82.9083 21.6579 82.9083 23.5091C82.9083 25.3405 81.6716 26.6751 80.0956 26.6751Z" fill="currentColor"/><path d="M88.8515 28.4272H86.5375V12.9773H88.8515V28.4272Z" fill="currentColor"/><path fill-rule="evenodd" clip-rule="evenodd" d="M99.4414 21.5786C99.0028 20.4036 97.666 18.2333 94.9342 18.2333C92.2221 18.2333 89.9678 20.3637 89.9678 23.4894C89.9678 26.4367 92.2009 28.7449 95.1927 28.7449C97.6068 28.7449 99.0028 27.272 99.581 26.4156L97.7864 25.2218C97.1885 26.0979 96.3702 26.6751 95.1927 26.6751C94.0157 26.6751 93.1786 26.1373 92.6404 25.082L99.6801 22.1755L99.4414 21.5786ZM92.2616 23.3298C92.2009 21.2994 93.8376 20.2638 95.0131 20.2638C95.9321 20.2638 96.7091 20.7222 96.9681 21.3796L92.2616 23.3298Z" fill="currentColor"/><path d="M43.3543 22.0755V19.8461H50.873C50.9525 20.2441 50.9934 20.7222 50.9934 21.2403C50.9934 22.9122 50.5342 24.982 49.0587 26.4564C47.6228 27.9491 45.7882 28.7449 43.3543 28.7449C38.8472 28.7449 35.0582 25.082 35.0582 20.5824C35.0582 16.0832 38.8472 12.4203 43.3543 12.4203C45.8474 12.4203 47.6227 13.3954 48.9581 14.6694L47.3835 16.2423C46.4256 15.3465 45.1297 14.6497 43.3543 14.6497C40.0641 14.6497 37.4916 17.2977 37.4916 20.5824C37.4916 23.8676 40.0641 26.5155 43.3543 26.5155C45.4883 26.5155 46.7052 25.6592 47.4827 24.883C48.1214 24.2453 48.5398 23.3298 48.6996 22.0755H43.3543Z" fill="currentColor"/><path fill-rule="evenodd" clip-rule="evenodd" d="M57.0686 18.2333C54.1572 18.2333 51.7844 20.443 51.7844 23.4894C51.7844 26.5155 54.1572 28.7449 57.0686 28.7449C59.9804 28.7449 62.3532 26.5155 62.3532 23.4894C62.3532 20.443 59.9804 18.2333 57.0686 18.2333ZM57.0686 26.6751C55.4733 26.6751 54.0979 25.3617 54.0979 23.4894C54.0979 21.5983 55.4733 20.3046 57.0686 20.3046C58.6643 20.3046 60.0397 21.5983 60.0397 23.4894C60.0397 25.3617 58.6643 26.6751 57.0686 26.6751Z" fill="currentColor"/><path fill-rule="evenodd" clip-rule="evenodd" d="M63.3125 23.4894C63.3125 20.443 65.6857 18.2333 68.5972 18.2333C71.51 18.2333 73.8827 20.443 73.8827 23.4894C73.8827 26.5155 71.51 28.7449 68.5972 28.7449C65.6857 28.7449 63.3125 26.5155 63.3125 23.4894ZM65.626 23.4894C65.626 25.3617 67.0028 26.6751 68.5972 26.6751C70.1929 26.6751 71.5692 25.3617 71.5692 23.4894C71.5692 21.5983 70.1929 20.3046 68.5972 20.3046C67.0028 20.3046 65.626 21.5983 65.626 23.4894Z" fill="currentColor"/><path d="M0.5 29.8769V3.01791C0.5 2.08206 1.03178 1.26957 1.80414 0.886719L17.0233 16.4453L1.79781 32.0038C1.02756 31.621 0.5 30.8127 0.5 29.8769Z" fill="currentColor"/><path d="M21.8516 21.3776L5.21009 31.1998L18.3338 17.7831L21.8516 21.3776Z" fill="currentColor"/><path d="M27.9354 16.4453C27.9354 15.6774 27.5788 14.9947 27.0259 14.5629L23.5123 12.4892L19.6485 16.441L23.5144 20.3929L27.0491 18.3085C27.5894 17.8746 27.9354 17.2003 27.9354 16.4453Z" fill="currentColor"/><path d="M5.21853 1.69708L21.8495 11.5086L21.8474 11.5108L18.3338 15.1032L5.21853 1.69708Z" fill="currentColor"/></symbol></defs><defs><symbol width="140" height="18" fill="none" id="Logo"><path d="M43.7586 16.2345c3.6626 0 5.9357-2.0106 5.9357-5.0179 0-2.7518-1.9154-4.6365-4.8202-4.6998l4.0204-4.3003V.3555h-9.1774v2.476h5.3044l-4.2942 4.9549.7999 1.5035c.6316-.339 1.3262-.5073 2.1261-.5073 1.7892 0 2.968.9518 2.968 2.455 0 1.5036-1.2209 2.5182-3.1996 2.5182-1.347 0-2.547-.4653-3.3048-1.2696l-1.1155 2.1817c1.0105.9936 2.8418 1.5666 4.7572 1.5666ZM.4601 13.9039H4.88a.0578.0578 0 0 0 .0547-.0397L6.43 9.3662l.0007-.0022 1.296-4.4616a.0586.0586 0 0 0-.0045-.0439l-.1885-.354a.0577.0577 0 0 0-.051-.0306H2.0623a.0579.0579 0 0 0-.057.0489l-.777 4.8416-.0002.0014-.8247 4.4693a.0581.0581 0 0 0 .0568.0688ZM14.5506 13.9039h-4.4011l-.0026-.0001-.0031-.0002-.0043-.0006a.0582.0582 0 0 1-.0469-.0674l.781-4.4701.7823-4.8428a.058.058 0 0 1 .0571-.0488h5.458a.0577.0577 0 0 1 .0508.0305l.1898.354a.0587.0587 0 0 1 .0046.0441L16.1114 9.364l-.0007.0022-1.5054 4.4981a.0578.0578 0 0 1-.0547.0396ZM24.5204 13.9039h-4.4199a.058.058 0 0 1-.0567-.0688l.8247-4.4693.0002-.0014.7769-4.8416a.0579.0579 0 0 1 .057-.049h5.4205a.0577.0577 0 0 1 .0509.0308l.1885.354a.0581.0581 0 0 1 .0045.0438L26.071 9.364l-.0007.0022-1.4951 4.498a.0579.0579 0 0 1-.0548.0397ZM58.7031.3555c2.547 0 4.6098.8464 6.1464 2.5207L62.9761 4.782c-.884-1.1434-2.3785-1.9503-4.2309-1.9503-3.1363 0-5.2203 2.2237-5.2203 5.5488 0 3.3672 2.126 5.5883 5.2623 5.5883 2.1049 0 3.5573-.9515 4.5469-2.4761l1.9996 1.8006c-1.4945 2.0529-3.7679 3.1542-6.6097 3.1542-4.9464 0-8.2722-3.2383-8.2722-8.0877 0-4.8077 3.3049-8.0042 8.2513-8.0042Z" fill="currentColor"/><path fill-rule="evenodd" clip-rule="evenodd" d="M71.6899 4.59c-3.6415 0-6.0832 2.371-6.0832 5.909 0 3.5567 2.4417 5.9274 6.0832 5.9274 3.6205 0 6.0622-2.3707 6.0622-5.9274 0-3.538-2.4417-5.909-6.0622-5.909Zm0 2.4578c1.8524 0 3.0942 1.3747 3.0942 3.4512 0 2.074-1.2418 3.4487-3.0942 3.4487-1.8731 0-3.1152-1.3747-3.1152-3.4487 0-2.0765 1.2421-3.4512 3.1152-3.4512Z" fill="currentColor"/><path d="M97.1384 9.0376v7.1759h-2.8627V9.5028c0-1.4825-.9261-2.455-2.3366-2.455-1.3889 0-2.3153.9725-2.3153 2.455v6.7107h-2.8627V9.5028c0-1.4825-.9261-2.455-2.3361-2.455-1.3894 0-2.3158.9725-2.3158 2.455v6.7107h-2.8627V4.803h2.7577l.042 1.3537c.7999-1.0357 1.9996-1.5666 3.389-1.5666 1.4942 0 2.6941.636 3.4311 1.7164.8207-1.1221 2.1467-1.7164 3.6623-1.7164 2.7576 0 4.6098 1.7795 4.6098 4.4475ZM117.008 16.2135v-7.176c0-2.6679-1.852-4.4474-4.61-4.4474-1.515 0-2.841.5943-3.662 1.7164-.737-1.0803-1.937-1.7164-3.431-1.7164-1.389 0-2.589.531-3.389 1.5666l-.042-1.3537h-2.7577v11.4105h2.8627V9.5028c0-1.4825.926-2.455 2.316-2.455 1.41 0 2.336.9725 2.336 2.455v6.7107h2.863V9.5028c0-1.4825.926-2.455 2.315-2.455 1.41 0 2.337.9725 2.337 2.455v6.7107h2.862Z" fill="currentColor"/><path fill-rule="evenodd" clip-rule="evenodd" d="M128.353 9.0376v7.1759h-2.757l-.063-1.6297c-.758 1.1855-2.063 1.8426-3.452 1.8426-2.358 0-3.937-1.4191-3.937-3.5354 0-2.2027 1.937-3.6429 4.842-3.6429.779 0 1.642.0868 2.504.2547v-.2126c0-1.5248-1.01-2.4343-2.736-2.4343-1.073 0-1.936.318-2.652.9095l-1.242-1.6928c1.221-.9962 2.652-1.4825 4.631-1.4825 2.905 0 4.862 1.7585 4.862 4.4475Zm-2.863 2.413c-.736-.1472-1.494-.234-2.146-.234-1.348 0-2.211.6364-2.211 1.6116 0 .9302.611 1.5456 1.769 1.5456 1.326 0 2.568-1.0596 2.588-2.9232Z" fill="currentColor"/><path d="m130.837 13.3352-1.074 1.7349c1.032.9124 2.568 1.3563 4.294 1.3563 2.842 0 4.736-1.4404 4.736-3.5982 0-2.0137-1.536-2.902-3.473-3.4095l-.947-.276c-.989-.255-1.705-.573-1.705-1.2485 0-.6572.716-1.0383 1.747-1.0383 1.011 0 1.979.2342 2.884.7412l1.199-1.8846c-1.115-.7623-2.568-1.1224-4.272-1.1224-2.695 0-4.463 1.5038-4.463 3.7693 0 1.8006 1.305 2.5421 3.221 3.0491l.947.255c1.137.2944 1.936.6755 1.936 1.3747s-.715 1.1434-1.768 1.1434c-1.115 0-2.189-.2102-3.262-.8464Z" fill="currentColor"/></symbol></defs><defs><symbol viewBox="0 0 33 20" fill="none" id="MasterCard"><path d="M21.0423 2.13916H12.2915V17.8608H21.0423V2.13916Z" fill="#6B7B8B"/><path d="M12.8742 10C12.8742 6.80583 14.3758 3.97087 16.68 2.13916C14.9842 0.805825 12.8451 0 10.5117 0C4.98421 0 0.511719 4.47249 0.511719 10C0.511719 15.5275 4.98421 20 10.5117 20C12.8451 20 14.9842 19.1942 16.68 17.8608C14.3726 16.055 12.8742 13.1942 12.8742 10Z" fill="#2F4050"/><path d="M32.8485 10C32.8485 15.5275 28.376 20 22.8485 20C20.5151 20 18.376 19.1942 16.6802 17.8608C19.0135 16.0259 20.486 13.1942 20.486 10C20.486 6.80583 18.9844 3.97087 16.6802 2.13916C18.3727 0.805825 20.5119 0 22.8452 0C28.376 0 32.8485 4.50162 32.8485 10Z" fill="#57697A"/></symbol></defs><defs><symbol viewBox="0 0 76 20" fill="none" id="PayPal"><path d="M28.8546 4.09033H24.7098C24.4261 4.09033 24.1849 4.29639 24.1407 4.57639L22.4643 15.2049C22.431 15.4146 22.5934 15.6037 22.8061 15.6037H24.7849C25.0686 15.6037 25.3098 15.3976 25.354 15.117L25.8061 12.2503C25.8498 11.9697 26.0916 11.7637 26.3746 11.7637H27.6867C30.417 11.7637 31.9928 10.4425 32.4043 7.82427C32.5898 6.67882 32.4122 5.77882 31.8758 5.14851C31.2867 4.45639 30.2419 4.09033 28.8546 4.09033ZM29.3328 7.97215C29.1061 9.45942 27.9698 9.45942 26.871 9.45942H26.2455L26.6843 6.68185C26.7104 6.51397 26.8558 6.39033 27.0255 6.39033H27.3122C28.0607 6.39033 28.7667 6.39033 29.1316 6.817C29.3492 7.07154 29.4158 7.44973 29.3328 7.97215Z" fill="#57697A"/><path d="M41.2443 7.92446H39.2595C39.0904 7.92446 38.9443 8.0481 38.9182 8.21597L38.8304 8.77113L38.6916 8.56991C38.2619 7.94628 37.3037 7.73779 36.3473 7.73779C34.154 7.73779 32.2807 9.39901 31.9158 11.7293C31.7261 12.8917 31.9958 14.0032 32.6552 14.7784C33.2601 15.4911 34.1255 15.7881 35.1552 15.7881C36.9225 15.7881 37.9025 14.6517 37.9025 14.6517L37.814 15.2032C37.7807 15.4142 37.9431 15.6032 38.1546 15.6032H39.9425C40.2267 15.6032 40.4667 15.3972 40.5116 15.1166L41.5843 8.32325C41.6182 8.11416 41.4564 7.92446 41.2443 7.92446ZM38.4776 11.7875C38.2861 12.9214 37.3861 13.6826 36.2382 13.6826C35.6619 13.6826 35.2013 13.4978 34.9055 13.1475C34.6122 12.7996 34.5007 12.3045 34.594 11.7529C34.7728 10.6287 35.6879 9.84264 36.8182 9.84264C37.3819 9.84264 37.8401 10.0299 38.1419 10.3832C38.4443 10.7402 38.5643 11.2384 38.4776 11.7875Z" fill="#57697A"/><path d="M51.8155 7.92432H49.821C49.6307 7.92432 49.4519 8.01886 49.344 8.17704L46.5931 12.2292L45.427 8.33523C45.3537 8.09159 45.1289 7.92432 44.8743 7.92432H42.9143C42.6761 7.92432 42.5107 8.15704 42.5864 8.38129L44.7834 14.8286L42.7179 17.7443C42.5555 17.974 42.7192 18.2898 42.9998 18.2898H44.9919C45.181 18.2898 45.3579 18.1976 45.4652 18.0425L52.0992 8.46674C52.2579 8.23765 52.0949 7.92432 51.8155 7.92432Z" fill="#57697A"/><path d="M58.4191 4.09033H54.2736C53.9906 4.09033 53.7494 4.29639 53.7051 4.57639L52.0288 15.2049C51.9954 15.4146 52.1579 15.6037 52.3694 15.6037H54.4966C54.6942 15.6037 54.8633 15.4594 54.8942 15.2631L55.37 12.2503C55.4136 11.9697 55.6554 11.7637 55.9385 11.7637H57.25C59.9809 11.7637 61.556 10.4425 61.9682 7.82427C62.1542 6.67882 61.9754 5.77882 61.4391 5.14851C60.8506 4.45639 59.8063 4.09033 58.4191 4.09033ZM58.8973 7.97215C58.6712 9.45942 57.5348 9.45942 56.4354 9.45942H55.8106L56.25 6.68185C56.276 6.51397 56.4203 6.39033 56.5906 6.39033H56.8773C57.6251 6.39033 58.3318 6.39033 58.6966 6.817C58.9142 7.07154 58.9803 7.44973 58.8973 7.97215Z" fill="#57697A"/><path d="M70.8081 7.92446H68.8245C68.6542 7.92446 68.5093 8.0481 68.4839 8.21597L68.396 8.77113L68.2566 8.56991C67.8269 7.94628 66.8693 7.73779 65.913 7.73779C63.7196 7.73779 61.8469 9.39901 61.4821 11.7293C61.293 12.8917 61.5615 14.0032 62.2208 14.7784C62.8269 15.4911 63.6912 15.7881 64.7208 15.7881C66.4881 15.7881 67.4681 14.6517 67.4681 14.6517L67.3796 15.2032C67.3463 15.4142 67.5087 15.6032 67.7215 15.6032H69.5087C69.7918 15.6032 70.033 15.3972 70.0772 15.1166L71.1505 8.32325C71.1833 8.11416 71.0208 7.92446 70.8081 7.92446ZM68.0415 11.7875C67.8512 12.9214 66.9499 13.6826 65.8021 13.6826C65.2269 13.6826 64.7651 13.4978 64.4693 13.1475C64.176 12.7996 64.0657 12.3045 64.1578 11.7529C64.3378 10.6287 65.2518 9.84264 66.3821 9.84264C66.9457 9.84264 67.4039 10.0299 67.7057 10.3832C68.0093 10.7402 68.1293 11.2384 68.0415 11.7875Z" fill="#57697A"/><path d="M73.1479 4.38196L71.4467 15.205C71.4134 15.4147 71.5758 15.6038 71.7873 15.6038H73.4976C73.7819 15.6038 74.0231 15.3977 74.0667 15.1171L75.7443 4.48924C75.7776 4.27954 75.6152 4.08984 75.4037 4.08984H73.4886C73.3195 4.09045 73.174 4.21409 73.1479 4.38196Z" fill="#57697A"/><path d="M5.25182 17.6691L5.56879 15.6558L4.86273 15.6394H1.49121L3.83424 0.78303C3.84151 0.738181 3.86515 0.696363 3.8997 0.666666C3.93424 0.636969 3.97848 0.620605 4.02454 0.620605H9.70939C11.5967 0.620605 12.8991 1.01333 13.5791 1.78848C13.8979 2.15212 14.1009 2.53212 14.1991 2.9503C14.3021 3.38909 14.3039 3.91333 14.2033 4.55273L14.1961 4.59939V5.00909L14.5148 5.1897C14.7833 5.33212 14.9967 5.49515 15.1603 5.68182C15.433 5.99273 15.6094 6.38788 15.6839 6.85636C15.7609 7.33818 15.7355 7.91151 15.6094 8.56061C15.4639 9.30727 15.2288 9.95758 14.9112 10.4897C14.6191 10.98 14.247 11.3867 13.8051 11.7018C13.3833 12.0012 12.8821 12.2285 12.3155 12.3739C11.7664 12.517 11.1403 12.5891 10.4536 12.5891H10.0112C9.69485 12.5891 9.38757 12.703 9.14636 12.9073C8.90454 13.1158 8.74454 13.4006 8.69545 13.7121L8.66212 13.8933L8.10212 17.4418L8.07666 17.5721C8.07 17.6133 8.05848 17.6339 8.04151 17.6479C8.02636 17.6606 8.00454 17.6691 7.98333 17.6691H5.25182Z" fill="#253B80"/><path d="M14.8166 4.64648C14.7996 4.75497 14.7802 4.86588 14.7584 4.97982C14.0087 8.82891 11.4439 10.1586 8.16813 10.1586H6.50025C6.09964 10.1586 5.76207 10.4495 5.69964 10.8447L4.8457 16.2604L4.60389 17.7956C4.56328 18.055 4.76328 18.2889 5.0251 18.2889H7.98328C8.33358 18.2889 8.63116 18.0344 8.68631 17.6889L8.7154 17.5386L9.27237 14.0041L9.30813 13.8101C9.36267 13.4635 9.66085 13.2089 10.0112 13.2089H10.4536C13.3196 13.2089 15.5633 12.0453 16.219 8.678C16.493 7.27133 16.3512 6.09679 15.6263 5.27073C15.4069 5.02164 15.1348 4.81497 14.8166 4.64648Z" fill="#57697A"/><path d="M14.0324 4.33403C13.9179 4.3007 13.7997 4.2704 13.6785 4.24312C13.5567 4.21646 13.4318 4.19282 13.3033 4.17221C12.8536 4.09949 12.3609 4.06494 11.833 4.06494H7.37728C7.26759 4.06494 7.16334 4.08979 7.07001 4.13464C6.86456 4.23343 6.71183 4.42797 6.67486 4.66615L5.72698 10.6698L5.69971 10.8449C5.76213 10.4498 6.09971 10.1589 6.50031 10.1589H8.16819C11.4439 10.1589 14.0088 8.82858 14.7585 4.98009C14.7809 4.86615 14.7997 4.75524 14.8167 4.64676C14.627 4.54615 14.4215 4.46009 14.2003 4.38676C14.1458 4.36858 14.0894 4.351 14.0324 4.33403Z" fill="#222E3A"/><path d="M6.6748 4.66606C6.71177 4.42788 6.8645 4.23333 7.06996 4.13515C7.16389 4.0903 7.26753 4.06545 7.37723 4.06545H11.833C12.3609 4.06545 12.8536 4.1 13.3033 4.17273C13.4318 4.19333 13.5566 4.21697 13.6784 4.24364C13.7997 4.27091 13.9178 4.30121 14.0324 4.33455C14.0893 4.35152 14.1457 4.36909 14.2009 4.38667C14.4221 4.46 14.6275 4.54667 14.8172 4.64667C15.0403 3.22424 14.8154 2.25576 14.0463 1.37879C13.1984 0.413333 11.6681 0 9.70996 0H4.02511C3.62511 0 3.2839 0.290909 3.22208 0.686667L0.854198 15.6958C0.807532 15.9927 1.03662 16.2606 1.33602 16.2606H4.84571L5.72693 10.6697L6.6748 4.66606Z" fill="#2F4050"/></symbol></defs><defs><symbol viewBox="0 0 25 24" fill="none" id="Telegram"><path fill-rule="evenodd" clip-rule="evenodd" d="M24.5 12C24.5 18.6274 19.1274 24 12.5 24C5.87258 24 0.5 18.6274 0.5 12C0.5 5.37258 5.87258 0 12.5 0C19.1274 0 24.5 5.37258 24.5 12ZM13.5751 8.56649L5.49422 11.896C4.07225 12.4509 4.90462 12.9711 4.90462 12.9711C4.90462 12.9711 6.1185 13.3873 7.15896 13.6994C8.19942 14.0116 8.75433 13.6648 8.75433 13.6648L13.6445 10.37C15.3786 9.19077 14.9624 10.1619 14.5462 10.578C13.6445 11.4798 12.1532 12.9017 10.9046 14.0463C10.3497 14.5318 10.6272 14.948 10.8699 15.1561C11.5757 15.7533 13.2375 16.8391 13.993 17.3327C14.2028 17.4698 14.3427 17.5612 14.3728 17.5838C14.5462 17.7226 15.5173 18.3468 16.1069 18.2081C16.6965 18.0694 16.7659 17.2717 16.7659 17.2717L17.6329 11.8266C17.71 11.3161 17.7871 10.8163 17.8589 10.3502C18.0458 9.13814 18.1975 8.15418 18.2225 7.80348C18.3266 6.62429 17.078 7.10984 17.078 7.10984C17.078 7.10984 14.3728 8.21967 13.5751 8.56649Z" fill="currentColor"/></symbol></defs><defs><symbol viewBox="0 0 25 24" fill="none" id="Twitter"><path d="M23.375 4.84471C22.5662 5.22115 21.7043 5.47067 20.8058 5.59183C21.7302 5.00625 22.4357 4.08606 22.7674 2.97692C21.9055 3.52212 20.954 3.90721 19.9399 4.12212C19.1215 3.1976 17.9552 2.625 16.6828 2.625C14.2142 2.625 12.2268 4.75096 12.2268 7.35721C12.2268 7.73221 12.2567 8.09279 12.3301 8.43606C8.62306 8.24423 5.34289 6.35913 3.13934 3.4875C2.75464 4.19567 2.52898 5.00625 2.52898 5.87885C2.52898 7.51731 3.32422 8.96971 4.50959 9.81058C3.7932 9.79615 3.09041 9.57548 2.495 9.22788C2.495 9.24231 2.495 9.26106 2.495 9.27981C2.495 11.5788 4.04061 13.4885 6.06744 13.9284C5.70448 14.0337 5.30891 14.0841 4.89838 14.0841C4.61291 14.0841 4.32472 14.0668 4.0542 14.0034C4.63194 15.8769 6.27134 17.2543 8.22069 17.299C6.70363 18.5582 4.77739 19.3168 2.69211 19.3168C2.32644 19.3168 1.97572 19.2995 1.625 19.2519C3.60017 20.6034 5.94102 21.375 8.46537 21.375C16.6706 21.375 21.1565 14.1635 21.1565 7.9125C21.1565 7.70337 21.1497 7.50144 21.1402 7.30096C22.0251 6.63462 22.7687 5.8024 23.375 4.84471Z" fill="currentColor"/></symbol></defs><defs><symbol viewBox="0 0 63 20" fill="none" id="Visa"><path d="M41.0976 0C36.7148 0 32.798 2.27172 32.798 6.46889C32.798 11.2822 39.7445 11.6147 39.7445 14.0328C39.7445 15.051 38.5777 15.9624 36.5848 15.9624C33.7565 15.9624 31.6427 14.6889 31.6427 14.6889L30.7382 18.9243C30.7382 18.9243 33.1733 20 36.4063 20C41.1982 20 44.9688 17.6167 44.9688 13.3478C44.9688 8.26162 37.9934 7.93904 37.9934 5.69465C37.9934 4.89706 38.9512 4.02316 40.9384 4.02316C43.1805 4.02316 45.0098 4.94935 45.0098 4.94935L45.895 0.858659C45.895 0.858659 43.9046 0 41.0976 0ZM0.998705 0.308732L0.892578 0.926194C0.892578 0.926194 2.73645 1.26365 4.39716 1.93681C6.53546 2.70871 6.68778 3.15808 7.04791 4.55379L10.9722 19.6816H16.2327L24.3369 0.308732H19.0884L13.881 13.4805L11.7561 2.31549C11.5612 1.03766 10.5741 0.308732 9.3658 0.308732H0.998705ZM26.4473 0.308732L22.3301 19.6816H27.3349L31.4377 0.308732H26.4473ZM54.361 0.308732C53.1541 0.308732 52.5147 0.954854 52.0455 2.08394L44.7131 19.6816H49.9616L50.977 16.7487H57.3711L57.9886 19.6816H62.6195L58.5795 0.308732H54.361ZM55.0436 5.54269L56.5993 12.8124H52.4314L55.0436 5.54269Z" fill="#57697A"/></symbol></defs><defs><symbol viewBox="0 0 25 24" fill="none" id="Youtube"><path d="M23.9985 5.6445C23.7225 4.60357 22.9092 3.78376 21.8766 3.50555C20.005 3 12.5 3 12.5 3C12.5 3 4.99503 3 3.12336 3.50555C2.09077 3.7838 1.27752 4.60357 1.0015 5.6445C0.5 7.53125 0.5 12.0171 0.5 12.0171C0.5 12.0171 0.5 16.5029 1.0015 18.3897C1.27752 19.4306 2.09077 20.2162 3.12336 20.4945C4.99503 21 12.5 21 12.5 21C12.5 21 20.005 21 21.8766 20.4945C22.9092 20.2162 23.7225 19.4306 23.9985 18.3897C24.5 16.5029 24.5 12.0171 24.5 12.0171C24.5 12.0171 24.5 7.53125 23.9985 5.6445ZM10.0454 15.5912V8.44302L16.3181 12.0172L10.0454 15.5912Z" fill="currentColor"/></symbol></defs><defs><symbol width="16" height="16" viewBox="0 0 16 16" fill="none" id="dropdown"><path d="M11.7563 6.19886C12.0585 5.91652 12.528 5.93733 12.8049 6.24534C13.0819 6.55335 13.0615 7.03192 12.7593 7.31427L8.26089 11.3996C8.11355 11.5335 7.88639 11.5335 7.73904 11.3996L3.24067 7.31427C2.93852 7.03192 2.91811 6.55335 3.19508 6.24534C3.47204 5.93733 3.94151 5.91652 4.24365 6.19886L7.74014 9.3498C7.88716 9.4823 8.11277 9.4823 8.2598 9.3498L11.7563 6.19886Z" fill="currentColor"/></symbol></defs></svg>